<?xml version="1.0" encoding="UTF-8"?>
<svg width="24px" height="24px" viewBox="0 0 24 24" version="1.1" xmlns="http://www.w3.org/2000/svg" xmlns:xlink="http://www.w3.org/1999/xlink">
    <!-- Generator: Sketch 43 (38999) - http://www.bohemiancoding.com/sketch -->
    <title>色环 copy 2</title>
    <desc>Created with Sketch.</desc>
    <defs></defs>
    <g id="-预见" stroke="none" stroke-width="1" fill="none" fill-rule="evenodd">
        <g id="2.0关系图谱-5" transform="translate(-1328.000000, -151.000000)" fill-rule="nonzero">
            <g id="色环-copy-2" transform="translate(1328.000000, 151.000000)">
                <path d="M9.81866667,2.19955457 C9.81866667,3.40105065 10.7905072,4.37505568 11.9893333,4.37505568 C13.1881594,4.37505568 14.16,3.40105065 14.16,2.19955457 C14.16,0.998058477 13.1881594,0.0240534521 11.9893333,0.0240534521 C10.7905072,0.0240534521 9.81866667,0.998058477 9.81866667,2.19955457 Z" id="Shape" fill="#FF0080"></path>
                <path d="M9.81866667,21.8004454 C9.81866667,23.0019415 10.7905072,23.9759465 11.9893333,23.9759465 C13.1881594,23.9759465 14.16,23.0019415 14.16,21.8004454 C14.16,20.5989493 13.1881594,19.6249443 11.9893333,19.6249443 C10.7905072,19.6249443 9.81866667,20.5989493 9.81866667,21.8004454 Z" id="Shape" fill="#00FF80"></path>
                <path d="M14.7253333,20.5256125 C14.7253333,21.3028442 15.13906,22.0210359 15.8106666,22.4096518 C16.4822733,22.7982676 17.3097267,22.7982676 17.9813334,22.4096518 C18.65294,22.0210359 19.0666667,21.3028442 19.0666667,20.5256125 C19.0666667,19.7483808 18.65294,19.030189 17.9813334,18.6415732 C17.3097267,18.2529573 16.4822733,18.2529573 15.8106666,18.6415732 C15.13906,19.030189 14.7253333,19.7483808 14.7253333,20.5256125 Z" id="Shape" fill="#00FF00"></path>
                <path d="M4.888,20.5256125 C4.888,21.7271086 5.85984057,22.7011136 7.05866667,22.7011136 C8.25749276,22.7011136 9.22933333,21.7271086 9.22933333,20.5256125 C9.22933333,19.3241164 8.25749276,18.3501114 7.05866667,18.3501114 C5.85984057,18.3501114 4.888,19.3241164 4.888,20.5256125 L4.888,20.5256125 Z" id="Shape" fill="#00FFFF"></path>
                <path d="M1.25866667,16.9095768 C1.25866666,17.6868085 1.67239338,18.4050002 2.34399999,18.7936161 C3.0156066,19.1822319 3.84306007,19.1822319 4.51466668,18.7936161 C5.18627328,18.4050002 5.60000001,17.6868085 5.6,16.9095768 C5.60000001,16.1323451 5.18627328,15.4141534 4.51466668,15.0255376 C3.84306007,14.6369217 3.0156066,14.6369217 2.34399999,15.0255376 C1.67239338,15.4141534 1.25866666,16.1323451 1.25866667,16.9095768 L1.25866667,16.9095768 Z" id="Shape" fill="#0080FF"></path>
                <path d="M18.3333333,16.9095768 C18.3333333,18.1110729 19.3051739,19.085078 20.504,19.085078 C21.7028261,19.085078 22.6746667,18.1110729 22.6746667,16.9095768 C22.6746667,15.7080807 21.7028261,14.7340757 20.504,14.7340757 C19.3051739,14.7340757 18.3333333,15.7080807 18.3333333,16.9095768 Z" id="Shape" fill="#80FF00"></path>
                <path d="M19.6533333,12.0427617 C19.6533333,13.2442578 20.6251739,14.2182628 21.824,14.2182628 C23.0228261,14.2182628 23.9946667,13.2442578 23.9946667,12.0427617 C23.9946667,10.8412656 23.0228261,9.86726058 21.824,9.86726058 C20.6251739,9.86726058 19.6533333,10.8412656 19.6533333,12.0427617 Z" id="Shape" fill="#FFFF00"></path>
                <path d="M0.00533333333,12.0427617 C0.00533333333,13.2442578 0.977173903,14.2182628 2.176,14.2182628 C3.3748261,14.2182628 4.34666667,13.2442578 4.34666667,12.0427617 C4.34666667,10.8412656 3.3748261,9.86726058 2.176,9.86726058 C0.977173903,9.86726058 0.00533333333,10.8412656 0.00533333333,12.0427617 Z" id="Shape" fill="#0000FF"></path>
                <path d="M1.37066667,7.14654788 C1.37066667,8.34804397 2.34250724,9.322049 3.54133333,9.322049 C4.74015943,9.322049 5.712,8.34804397 5.712,7.14654788 C5.71200001,6.36931619 5.29827328,5.65112448 4.62666668,5.26250863 C3.95506007,4.87389278 3.1276066,4.87389278 2.45599999,5.26250863 C1.78439338,5.65112448 1.37066666,6.36931619 1.37066667,7.14654788 L1.37066667,7.14654788 Z" id="Shape" fill="#8000FF"></path>
                <path d="M5,3.5091314 C4.99999998,4.2863631 5.41372671,5.00455482 6.08533332,5.39317067 C6.75693993,5.78178653 7.5843934,5.78178653 8.25600001,5.39317067 C8.92760662,5.00455482 9.34133335,4.2863631 9.34133333,3.5091314 C9.34133333,2.30763531 8.36949276,1.33363029 7.17066667,1.33363029 C5.97184057,1.33363029 5,2.30763531 5,3.5091314 L5,3.5091314 Z" id="Shape" fill="#FF00FF"></path>
                <path d="M14.7706667,3.5091314 C14.7706667,4.71062749 15.7425072,5.68463252 16.9413333,5.68463252 C18.1401594,5.68463252 19.112,4.71062749 19.112,3.5091314 C19.112,2.30763531 18.1401594,1.33363029 16.9413333,1.33363029 C15.7425072,1.33363029 14.7706667,2.30763531 14.7706667,3.5091314 L14.7706667,3.5091314 Z" id="Shape" fill="#FF0000"></path>
                <path d="M18.3333333,7.14654788 C18.3333333,8.34804397 19.3051739,9.322049 20.504,9.322049 C21.7028261,9.322049 22.6746667,8.34804397 22.6746667,7.14654788 C22.6746667,5.9450518 21.7028261,4.97104677 20.504,4.97104677 C19.3051739,4.97104677 18.3333333,5.9450518 18.3333333,7.14654788 Z" id="Shape" fill="#FF8000"></path>
            </g>
        </g>
    </g>
</svg>