<?xml version="1.0" encoding="utf-8"?>
<!-- Generator: Adobe Illustrator 21.0.0, SVG Export Plug-In . SVG Version: 6.00 Build 0)  -->
<svg version="1.1" id="图层_1" xmlns="http://www.w3.org/2000/svg" xmlns:xlink="http://www.w3.org/1999/xlink" x="0px" y="0px"
	 viewBox="0 0 444 330.3" style="enable-background:new 0 0 444 330.3;" xml:space="preserve">
<style type="text/css">
	.st0{fill:none;stroke:#B5B5B6;stroke-width:0.5;stroke-miterlimit:10;}
	.st1{fill:#F39800;}
	.st2{opacity:0.81;fill:#F39800;enable-background:new    ;}
	.st3{fill:none;stroke:#B5B5B6;stroke-width:0.25;stroke-miterlimit:10;}
	.st4{fill:#FFFFFF;}
	.st5{fill:#DE3F51;}
	.st6{fill:none;stroke:#C9CACA;stroke-width:0.25;stroke-miterlimit:10;}
	
		.st7{opacity:0.19;fill:none;stroke:#C30D23;stroke-linecap:round;stroke-linejoin:round;stroke-miterlimit:10;enable-background:new    ;}
	.st8{opacity:0.18;fill:none;stroke:#036EB8;stroke-miterlimit:10;enable-background:new    ;}
	
		.st9{opacity:0.19;fill:none;stroke:#036EB8;stroke-linecap:round;stroke-linejoin:round;stroke-miterlimit:10;enable-background:new    ;}
	.st10{opacity:0.27;fill:none;stroke:#C30D23;stroke-miterlimit:10;enable-background:new    ;}
	.st11{opacity:0.27;fill:none;stroke:#036EB8;stroke-miterlimit:10;enable-background:new    ;}
	
		.st12{opacity:0.26;fill:none;stroke:#C30D23;stroke-width:5;stroke-linecap:round;stroke-miterlimit:10;enable-background:new    ;}
	
		.st13{opacity:0.26;fill:none;stroke:#036EB8;stroke-width:5;stroke-linecap:round;stroke-linejoin:round;stroke-miterlimit:10;enable-background:new    ;}
	
		.st14{opacity:0.29;fill:none;stroke:#036EB8;stroke-width:5;stroke-linecap:round;stroke-linejoin:round;stroke-miterlimit:10;enable-background:new    ;}
	
		.st15{opacity:0.26;fill:none;stroke:#C30D23;stroke-width:5;stroke-linecap:round;stroke-linejoin:round;stroke-miterlimit:10;enable-background:new    ;}
	
		.st16{opacity:0.26;fill:none;stroke:#036EB8;stroke-width:5;stroke-linecap:round;stroke-miterlimit:10;enable-background:new    ;}
	
		.st17{opacity:0.29;fill:none;stroke:#C30D23;stroke-width:5;stroke-linecap:round;stroke-miterlimit:10;enable-background:new    ;}
	.st18{opacity:0.23;fill:none;stroke:#C30D23;stroke-width:2;stroke-miterlimit:10;enable-background:new    ;}
	.st19{opacity:0.18;fill:none;stroke:#C30D23;stroke-width:2;stroke-miterlimit:10;enable-background:new    ;}
	.st20{opacity:0.15;fill:none;stroke:#036EB8;stroke-miterlimit:10;enable-background:new    ;}
	
		.st21{opacity:0.19;fill:none;stroke:#C30D23;stroke-width:2;stroke-linecap:round;stroke-linejoin:round;stroke-miterlimit:10;enable-background:new    ;}
	
		.st22{opacity:0.19;fill:none;stroke:#036EB8;stroke-width:2;stroke-linecap:round;stroke-linejoin:round;stroke-miterlimit:10;enable-background:new    ;}
	.st23{opacity:0.13;fill:none;stroke:#C30D23;stroke-miterlimit:10;enable-background:new    ;}
	.st24{opacity:0.13;fill:none;stroke:#036EB8;stroke-width:2;stroke-miterlimit:10;enable-background:new    ;}
	.st25{opacity:0.13;fill:none;stroke:#2EA7E0;stroke-width:3;stroke-miterlimit:10;enable-background:new    ;}
	.st26{opacity:0.13;fill:none;stroke:#036EB8;stroke-miterlimit:10;enable-background:new    ;}
	.st27{opacity:0.27;fill:none;stroke:#036EB8;stroke-linecap:round;stroke-miterlimit:10;enable-background:new    ;}
	.st28{opacity:0.27;fill:none;stroke:#C30D23;stroke-linecap:round;stroke-miterlimit:10;enable-background:new    ;}
	
		.st29{opacity:0.27;fill:none;stroke:#C30D23;stroke-width:2;stroke-linecap:round;stroke-miterlimit:10;enable-background:new    ;}
	.st30{opacity:0.18;fill:none;stroke:#C30D23;stroke-linecap:round;stroke-miterlimit:10;enable-background:new    ;}
	.st31{opacity:0.68;fill:#036EB8;enable-background:new    ;}
</style>
<circle class="st0" cx="274" cy="113.8" r="33.2"/>
<circle class="st1" cx="243" cy="126.1" r="0.7"/>
<circle class="st1" cx="254.2" cy="140.2" r="1"/>
<ellipse transform="matrix(0.1801 -0.9836 0.9836 0.1801 72.4047 375.3472)" class="st1" cx="261.4" cy="144.2" rx="1.2" ry="1.2"/>
<ellipse transform="matrix(0.1801 -0.9836 0.9836 0.1801 80.4661 390.1037)" class="st1" cx="274.2" cy="146.8" rx="1.2" ry="1.2"/>
<ellipse transform="matrix(0.1801 -0.9836 0.9836 0.1801 75.6546 382.7164)" class="st1" cx="267.4" cy="146" rx="2.1" ry="2.1"/>
<circle class="st1" cx="244.5" cy="98.5" r="0.7"/>
<circle class="st1" cx="259.1" cy="84" r="0.7"/>
<circle class="st1" cx="287.7" cy="143.8" r="0.7"/>
<circle class="st1" cx="305" cy="125.6" r="0.4"/>
<circle class="st2" cx="156" cy="90.6" r="3.9"/>
<circle class="st3" cx="155.2" cy="91.1" r="19.7"/>
<circle class="st1" cx="136.8" cy="98.3" r="0.4"/>
<circle class="st1" cx="143.5" cy="106.7" r="0.6"/>
<ellipse transform="matrix(0.1801 -0.9836 0.9836 0.1801 13.7854 234.7583)" class="st1" cx="147.7" cy="109.1" rx="0.7" ry="0.7"/>
<ellipse transform="matrix(0.1801 -0.9836 0.9836 0.1801 16.8837 241.5874)" class="st1" cx="153.4" cy="110.7" rx="0.7" ry="0.7"/>
<ellipse transform="matrix(0.1801 -0.9836 0.9836 0.1801 19.6531 244.3589)" class="st1" cx="156.4" cy="110.4" rx="1.2" ry="1.2"/>
<ellipse transform="matrix(0.1801 -0.9836 0.9836 0.1801 25.2915 249.138)" class="st1" cx="162.1" cy="109.4" rx="1.2" ry="1.2"/>
<ellipse transform="matrix(0.1801 -0.9836 0.9836 0.1801 33.772 253.0034)" class="st1" cx="168.7" cy="106.2" rx="2.4" ry="2.4"/>
<circle class="st1" cx="137.7" cy="82" r="0.4"/>
<circle class="st4" cx="156" cy="90.6" r="1"/>
<circle class="st2" cx="23.8" cy="194.6" r="3.9"/>
<circle class="st3" cx="24.3" cy="195.4" r="19.7"/>
<circle class="st1" cx="39.9" cy="207.1" r="0.6"/>
<ellipse transform="matrix(0.1801 -0.9836 0.9836 0.1801 -164.9617 207.92)" class="st1" cx="42.2" cy="202.9" rx="0.7" ry="0.7"/>
<ellipse transform="matrix(0.1801 -0.9836 0.9836 0.1801 -159.244 205.9825)" class="st1" cx="43.9" cy="198.5" rx="0.7" ry="0.7"/>
<ellipse transform="matrix(0.1801 -0.9836 0.9836 0.1801 -150.582 196.414)" class="st1" cx="42.5" cy="188.5" rx="1.2" ry="1.2"/>
<ellipse transform="matrix(0.1801 -0.9836 0.9836 0.1801 -154.9133 202.1113)" class="st1" cx="43.8" cy="194" rx="2.4" ry="2.4"/>
<circle class="st4" cx="23.8" cy="194.6" r="1"/>
<circle class="st2" cx="224.1" cy="18.9" r="2.7"/>
<circle class="st3" cx="223.6" cy="19.3" r="13.8"/>
<ellipse transform="matrix(0.1801 -0.9836 0.9836 0.1801 149.8221 245.7344)" class="st1" cx="222.3" cy="33" rx="0.5" ry="0.5"/>
<ellipse transform="matrix(0.1801 -0.9836 0.9836 0.1801 155.6463 251.0866)" class="st1" cx="228.4" cy="32.2" rx="0.9" ry="0.9"/>
<ellipse transform="matrix(0.1801 -0.9836 0.9836 0.1801 152.4504 248.2105)" class="st1" cx="225.1" cy="32.7" rx="1.7" ry="1.7"/>
<circle class="st1" cx="212.6" cy="15.2" r="0.3"/>
<circle class="st4" cx="224.1" cy="18.9" r="0.7"/>
<circle class="st2" cx="162.4" cy="20.5" r="1.7"/>
<circle class="st3" cx="162.1" cy="20.7" r="8.8"/>
<ellipse transform="matrix(0.1801 -0.9836 0.9836 0.1801 103.3031 182.7347)" class="st1" cx="161.3" cy="29.4" rx="0.3" ry="0.3"/>
<ellipse transform="matrix(0.1801 -0.9836 0.9836 0.1801 107.0131 186.084)" class="st1" cx="165.1" cy="28.8" rx="0.6" ry="0.6"/>
<ellipse transform="matrix(0.1801 -0.9836 0.9836 0.1801 98.2582 181.0924)" class="st1" cx="157.8" cy="31.6" rx="1" ry="1"/>
<circle class="st4" cx="162.4" cy="20.5" r="0.4"/>
<circle class="st2" cx="161.3" cy="161.3" r="3.8"/>
<circle class="st3" cx="160.5" cy="161.8" r="19"/>
<ellipse transform="matrix(0.1801 -0.9836 0.9836 0.1801 -47.4292 304.16)" class="st5" cx="158.7" cy="180.5" rx="1.4" ry="1.4"/>
<ellipse transform="matrix(0.1801 -0.9836 0.9836 0.1801 -32.3147 314.2499)" class="st1" cx="172.3" cy="176.5" rx="1.2" ry="1.2"/>
<ellipse transform="matrix(0.1801 -0.9836 0.9836 0.1801 -19.6926 313.5826)" class="st1" cx="178.3" cy="168.6" rx="2.3" ry="2.3"/>
<circle class="st4" cx="161.3" cy="161.3" r="1"/>
<circle class="st2" cx="342.1" cy="139.9" r="6.1"/>
<circle class="st3" cx="340.8" cy="140.7" r="30.6"/>
<circle class="st1" cx="312.3" cy="152" r="0.7"/>
<circle class="st1" cx="317.9" cy="160.8" r="0.9"/>
<ellipse transform="matrix(0.1801 -0.9836 0.9836 0.1801 103.9266 462.1431)" class="st1" cx="329.2" cy="168.7" rx="1.1" ry="1.1"/>
<ellipse transform="matrix(0.1801 -0.9836 0.9836 0.1801 111.7078 476.3262)" class="st1" cx="341.6" cy="171.2" rx="1.1" ry="1.1"/>
<ellipse transform="matrix(0.1801 -0.9836 0.9836 0.1801 103.2778 440.3996)" class="st1" cx="315.8" cy="158.2" rx="1.9" ry="1.9"/>
<circle class="st1" cx="313.7" cy="126.7" r="0.7"/>
<circle class="st1" cx="327.1" cy="113.2" r="0.7"/>
<circle class="st1" cx="353.4" cy="168.3" r="0.7"/>
<circle class="st1" cx="369.5" cy="151.6" r="0.4"/>
<circle class="st4" cx="342.1" cy="139.9" r="1.6"/>
<ellipse transform="matrix(1.373573e-03 -1 1 1.373573e-03 -42.6842 583.8151)" class="st2" cx="271" cy="313.3" rx="3.5" ry="3.5"/>
<ellipse transform="matrix(1.373573e-03 -1 1 1.373573e-03 -31.7497 567.2009)" class="st2" cx="268.1" cy="299.5" rx="2" ry="2"/>
<ellipse transform="matrix(1.373573e-03 -1 1 1.373573e-03 -42.6842 583.8151)" class="st4" cx="271" cy="313.3" rx="0.9" ry="0.9"/>
<circle class="st2" cx="431.6" cy="210.7" r="2.7"/>
<circle class="st4" cx="431.6" cy="210.7" r="0.7"/>
<circle class="st4" cx="206.5" cy="265.9" r="0.8"/>
<circle class="st2" cx="191.9" cy="216.6" r="2.4"/>
<circle class="st4" cx="191.9" cy="216.6" r="0.6"/>
<circle class="st1" cx="116.9" cy="171.8" r="0.6"/>
<circle class="st1" cx="176.5" cy="172" r="0.9"/>
<circle class="st3" cx="106.8" cy="182.6" r="14.9"/>
<circle class="st6" cx="191.9" cy="216.6" r="10.5"/>
<ellipse transform="matrix(1.373573e-03 -1 1 1.373573e-03 -42.6842 583.8151)" class="st6" cx="271" cy="313.3" rx="9.1" ry="9.1"/>
<circle class="st2" cx="341.6" cy="278.8" r="3.6"/>
<circle class="st4" cx="341.6" cy="278.8" r="0.9"/>
<circle class="st6" cx="341.6" cy="278.8" r="16"/>
<line class="st7" x1="226.9" y1="18.9" x2="337.9" y2="137"/>
<line class="st8" x1="343.6" y1="139.9" x2="429" y2="210.7"/>
<line class="st9" x1="224.1" y1="19.6" x2="272.5" y2="107.5"/>
<line class="st10" x1="275.3" y1="119" x2="341.6" y2="274.6"/>
<line class="st11" x1="342.1" y1="146" x2="341.6" y2="275.1"/>
<line class="st12" x1="252.1" y1="209.7" x2="337.9" y2="278.8"/>
<line class="st13" x1="158.8" y1="93.3" x2="246.7" y2="203.7"/>
<line class="st14" x1="275.3" y1="119.5" x2="250.6" y2="203.7"/>
<line class="st15" x1="165.1" y1="165" x2="246.7" y2="203.7"/>
<line class="st16" x1="252.8" y1="212.8" x2="271" y2="309.7"/>
<line class="st12" x1="161.3" y1="165" x2="151.4" y2="272"/>
<line class="st17" x1="154.7" y1="275.4" x2="272.9" y2="118.2"/>
<line class="st8" x1="207.4" y1="263.4" x2="274" y2="119"/>
<line class="st18" x1="156" y1="94.5" x2="205.8" y2="265.9"/>
<line class="st19" x1="110.9" y1="179.8" x2="272.5" y2="117.2"/>
<line class="st20" x1="162" y1="20.5" x2="107.4" y2="181.4"/>
<line class="st18" x1="156" y1="94.5" x2="108" y2="182.6"/>
<line class="st21" x1="223" y1="19.6" x2="110.3" y2="179.2"/>
<line class="st22" x1="162.4" y1="22.2" x2="275.3" y2="111.3"/>
<line class="st21" x1="170.8" y1="26.3" x2="337.9" y2="137"/>
<line class="st23" x1="23.8" y1="193.6" x2="156" y2="91.6"/>
<line class="st24" x1="27.7" y1="194.6" x2="157.6" y2="161.3"/>
<line class="st25" x1="44" y1="195.4" x2="244.5" y2="209.7"/>
<line class="st26" x1="41.6" y1="202.8" x2="205.8" y2="265.9"/>
<line class="st23" x1="39.9" y1="207.7" x2="151.4" y2="276.2"/>
<line class="st27" x1="342.1" y1="141.5" x2="255.3" y2="208.2"/>
<line class="st28" x1="329" y1="169.4" x2="275.3" y2="304.8"/>
<line class="st29" x1="207.9" y1="263.8" x2="317" y2="160.8"/>
<line class="st28" x1="340.5" y1="139.9" x2="202.4" y2="210.7"/>
<line class="st10" x1="274" y1="147.8" x2="271" y2="304.1"/>
<line class="st23" x1="198" y1="222.6" x2="264.8" y2="306.5"/>
<line class="st28" x1="154.7" y1="275.4" x2="341.6" y2="141.2"/>
<line class="st23" x1="174" y1="93.9" x2="271" y2="117"/>
<line class="st7" x1="224.9" y1="34.3" x2="250.6" y2="203.7"/>
<line class="st30" x1="280" y1="117.5" x2="425.9" y2="208.2"/>
<g>
	<circle class="st1" cx="275.3" cy="112.9" r="6.6"/>
	<circle class="st4" cx="275.3" cy="112.9" r="1.7"/>
</g>
<ellipse transform="matrix(0.1801 -0.9836 0.9836 0.1801 -82.8294 270.8523)" class="st5" cx="121.1" cy="185.1" rx="1.4" ry="1.4"/>
<ellipse transform="matrix(0.1801 -0.9836 0.9836 0.1801 -62.639 354.9011)" class="st31" cx="181.6" cy="215" rx="1.4" ry="1.4"/>
<ellipse transform="matrix(0.1801 -0.9836 0.9836 0.1801 -9.0423 305.9763)" class="st31" cx="179" cy="158.4" rx="1.4" ry="1.4"/>
<ellipse transform="matrix(0.1801 -0.9836 0.9836 0.1801 -184.2778 205.7436)" class="st31" cx="31.3" cy="213.4" rx="1.4" ry="1.4"/>
<ellipse transform="matrix(0.1801 -0.9836 0.9836 0.1801 -14.1994 564.314)" class="st31" cx="331.4" cy="290.7" rx="1.4" ry="1.4"/>
<ellipse transform="matrix(0.1801 -0.9836 0.9836 0.1801 65.1165 194.4691)" class="st31" cx="149.2" cy="58.2" rx="1.4" ry="1.4"/>
<ellipse transform="matrix(0.1801 -0.9836 0.9836 0.1801 102.1473 455.2719)" class="st31" cx="324.2" cy="166.4" rx="1.4" ry="1.4"/>
<ellipse transform="matrix(0.1801 -0.9836 0.9836 0.1801 70.9465 354.5691)" class="st31" cx="248.2" cy="134.7" rx="1.4" ry="1.4"/>
<ellipse transform="matrix(0.1801 -0.9836 0.9836 0.1801 144.8788 390.6344)" class="st31" cx="306.8" cy="108.4" rx="1.4" ry="1.4"/>
<g>
	<circle class="st2" cx="107.4" cy="182.2" r="3"/>
	<circle class="st4" cx="107.4" cy="182.2" r="0.8"/>
</g>
<g>
	<circle class="st2" cx="249.6" cy="208.2" r="6.1"/>
	<circle class="st4" cx="249.6" cy="208.2" r="1.6"/>
</g>
<circle class="st1" cx="206.5" cy="265.9" r="3"/>
<circle class="st4" cx="206.5" cy="265.9" r="0.8"/>
<g>
	<circle class="st2" cx="151.8" cy="276" r="3.9"/>
	<circle class="st4" cx="151.8" cy="276" r="1"/>
</g>
</svg>
