<?xml version="1.0" encoding="UTF-8"?>
<svg width="25px" height="25px" viewBox="0 0 25 25" version="1.1" xmlns="http://www.w3.org/2000/svg" xmlns:xlink="http://www.w3.org/1999/xlink">
    <!-- Generator: Sketch 43 (38999) - http://www.bohemiancoding.com/sketch -->
    <title>黑白 copy 2</title>
    <desc>Created with Sketch.</desc>
    <defs></defs>
    <g id="-预见" stroke="none" stroke-width="1" fill="none" fill-rule="evenodd">
        <g id="2.0关系图谱-5" transform="translate(-1328.000000, -186.000000)" fill-rule="nonzero" fill="#000000">
            <g id="黑白-copy-2" transform="translate(1328.000000, 186.000000)">
                <path d="M10.2272727,2.32954545 C10.2272727,3.57954545 11.2357955,4.58806818 12.4857955,4.58806818 C13.7357955,4.58806818 14.7443182,3.57954545 14.7443182,2.32954545 L14.7443182,2.32954545 C14.7443182,1.07954545 13.7357955,0.0710227273 12.4857955,0.0710227273 C11.2357955,0.0710227273 10.2272727,1.07954545 10.2272727,2.32954545 L10.2272727,2.32954545 Z" id="Shape"></path>
                <path d="M10.2272727,22.6704545 C10.2272727,23.9204545 11.2357955,24.9289773 12.4857955,24.9289773 C13.7357955,24.9289773 14.7443182,23.9204545 14.7443182,22.6704545 L14.7443182,22.6704545 C14.7443182,21.4204545 13.7357955,20.4119318 12.4857955,20.4119318 C11.2357955,20.4119318 10.2272727,21.4204545 10.2272727,22.6704545 L10.2272727,22.6704545 Z" id="Shape" opacity="0.4"></path>
                <path d="M15.3409091,21.3494318 C15.3409091,22.5994318 16.3494318,23.6079545 17.5994318,23.6079545 C18.8494318,23.6079545 19.8579545,22.5994318 19.8579545,21.3494318 L19.8579545,21.3494318 C19.8579545,20.0994318 18.8494318,19.0909091 17.5994318,19.0909091 C16.3494318,19.0909091 15.3409091,20.0994318 15.3409091,21.3494318 L15.3409091,21.3494318 Z" id="Shape" opacity="0.5"></path>
                <path d="M5.09943182,21.3494318 C5.09943182,22.5994318 6.10795455,23.6079545 7.35795455,23.6079545 C8.60795455,23.6079545 9.61647727,22.5994318 9.61647727,21.3494318 C9.61647727,20.0994318 8.60795455,19.0909091 7.35795455,19.0909091 C6.10795455,19.0909091 5.09943182,20.0994318 5.09943182,21.3494318 L5.09943182,21.3494318 Z" id="Shape" opacity="0.3"></path>
                <path d="M1.32102273,17.5994318 C1.32102273,18.8494318 2.32954545,19.8579545 3.57954545,19.8579545 C4.82954545,19.8579545 5.83806818,18.8494318 5.83806818,17.5994318 L5.83806818,17.5994318 C5.83806818,16.3494318 4.82954545,15.3409091 3.57954545,15.3409091 C2.32954545,15.3409091 1.32102273,16.3494318 1.32102273,17.5994318 L1.32102273,17.5994318 Z" id="Shape" opacity="0.25"></path>
                <path d="M19.0909091,17.5994318 C19.0909091,18.8494318 20.0994318,19.8579545 21.3494318,19.8579545 C22.5994318,19.8579545 23.6079545,18.8494318 23.6079545,17.5994318 L23.6079545,17.5994318 C23.6079545,16.3494318 22.5994318,15.3409091 21.3494318,15.3409091 C20.0994318,15.3409091 19.0909091,16.3494318 19.0909091,17.5994318 L19.0909091,17.5994318 Z" id="Shape" opacity="0.6"></path>
                <path d="M20.46875,12.5426136 C20.46875,13.7926136 21.4772727,14.8011364 22.7272727,14.8011364 C23.9772727,14.8011364 24.9857955,13.7926136 24.9857955,12.5426136 L24.9857955,12.5426136 C24.9857955,11.2926136 23.9772727,10.2840909 22.7272727,10.2840909 C21.4772727,10.2840909 20.46875,11.2926136 20.46875,12.5426136 L20.46875,12.5426136 Z" id="Shape" opacity="0.7"></path>
                <path d="M0.0142045455,12.5426136 C0.0142045455,13.7926136 1.02272727,14.8011364 2.27272727,14.8011364 C3.52272727,14.8011364 4.53125,13.7926136 4.53125,12.5426136 L4.53125,12.5426136 C4.53125,11.2926136 3.52272727,10.2840909 2.27272727,10.2840909 C1.03693182,10.2840909 0.0142045455,11.2926136 0.0142045455,12.5426136 L0.0142045455,12.5426136 Z" id="Shape" opacity="0.2"></path>
                <path d="M1.43465909,7.45738636 C1.43465909,8.70738636 2.44318182,9.71590909 3.69318182,9.71590909 C4.94318182,9.71590909 5.95170455,8.70738636 5.95170455,7.45738636 C5.95170455,6.20738636 4.94318182,5.19886364 3.69318182,5.19886364 C2.45738636,5.19886364 1.43465909,6.20738636 1.43465909,7.45738636 L1.43465909,7.45738636 Z" id="Shape" opacity="0.15"></path>
                <path d="M5.21306818,3.67897727 C5.21306818,4.92897727 6.22159091,5.9375 7.47159091,5.9375 C8.72159091,5.9375 9.73011364,4.92897727 9.73011364,3.67897727 L9.73011364,3.67897727 C9.73011364,2.42897727 8.72159091,1.42045455 7.47159091,1.42045455 C6.23579545,1.42045455 5.21306818,2.44318182 5.21306818,3.67897727 L5.21306818,3.67897727 Z" id="Shape" opacity="0.1"></path>
                <path d="M15.3835227,3.67897727 C15.3835227,4.92897727 16.3920455,5.9375 17.6420455,5.9375 C18.8920455,5.9375 19.9005682,4.92897727 19.9005682,3.67897727 L19.9005682,3.67897727 C19.9005682,2.42897727 18.8920455,1.42045455 17.6420455,1.42045455 C16.3920455,1.42045455 15.3835227,2.44318182 15.3835227,3.67897727 L15.3835227,3.67897727 Z" id="Shape" opacity="0.9"></path>
                <path d="M19.0909091,7.45738636 C19.0909091,8.70738636 20.0994318,9.71590909 21.3494318,9.71590909 C22.5994318,9.71590909 23.6079545,8.70738636 23.6079545,7.45738636 L23.6079545,7.45738636 C23.6079545,6.20738636 22.5994318,5.19886364 21.3494318,5.19886364 C20.0994318,5.19886364 19.0909091,6.20738636 19.0909091,7.45738636 L19.0909091,7.45738636 Z" id="Shape" opacity="0.8"></path>
            </g>
        </g>
    </g>
</svg>