<?xml version="1.0" encoding="utf-8"?>
<!-- Generator: Adobe Illustrator 21.0.0, SVG Export Plug-In . SVG Version: 6.00 Build 0)  -->
<svg version="1.1" id="图层_1" xmlns="http://www.w3.org/2000/svg" xmlns:xlink="http://www.w3.org/1999/xlink" x="0px" y="0px"
	 viewBox="0 0 216 66" style="enable-background:new 0 0 216 66;" xml:space="preserve">
<style type="text/css">
	.st0{fill:#F2F6FA;stroke:#9EA6CA;stroke-miterlimit:10;}
	.st1{fill:none;stroke:#9EA6CA;stroke-linecap:round;stroke-miterlimit:10;}
	.st2{fill:#FFFFFF;}
	.st3{fill:none;stroke:#EFF5FB;stroke-miterlimit:10;}
	.st4{fill:#EFF5FB;}
	.st5{fill:none;stroke:#EFF5FB;stroke-width:2;stroke-miterlimit:10;}
	.st6{fill:#9EA6CA;}
</style>
<g>
	<g id="XMLID_84_">
		<path id="XMLID_3_" class="st0" d="M48.3,31.5"/>
		<path class="st0" d="M63.8,37.7l2.7-7.5c0,0,2.9-8.2-5.4-11.1l-18.6-6.7l-6.3,17.1c0,0-1.7,3.5,0,7.2"/>
	</g>
	<g>
		<g>
			<line class="st1" x1="45.5" y1="23.2" x2="47.7" y2="27.9"/>
			<line class="st1" x1="49" y1="24.4" x2="44.2" y2="26.7"/>
		</g>
		<g>
			<line class="st1" x1="56.7" y1="27.2" x2="58.9" y2="32"/>
			<line class="st1" x1="60.2" y1="28.5" x2="55.4" y2="30.7"/>
		</g>
	</g>
	<line class="st1" x1="42.9" y1="33.2" x2="55.8" y2="37.8"/>
	<path class="st2" d="M38.2,28.6c0,0-3.5,6.3,2.6,9.4C40.8,38.1,37.6,35.8,38.2,28.6z"/>
	
		<rect id="XMLID_61_" x="71.3" y="26.8" transform="matrix(0.7071 -0.7071 0.7071 0.7071 1.1848 60.0384)" class="st3" width="3.6" height="3.6"/>
	
		<rect id="XMLID_6_" x="81.9" y="18.4" transform="matrix(0.7071 -0.7071 0.7071 0.7071 10.5201 64.4695)" class="st3" width="2.3" height="2.3"/>
	
		<rect id="XMLID_2_" x="31.2" y="26.8" transform="matrix(0.7071 -0.7071 0.7071 0.7071 -10.2661 31.047)" class="st4" width="2.3" height="2.3"/>
	<path class="st1" d="M22.6,37c0,0,0.9-0.1,1.6,0.7c0,0,0.8,0.7,1.8,0c0,0,1.9-1,2.5-0.2c0,0,0.9,0.9,2,0.5c0,0,1.7-1.6,3.1-0.3
		c0,0,0.9,0.7,2.2-0.1c0,0,1.4-0.7,2.3,0.2c0,0,1,1,1.9,0.2c0,0,1.5-1.1,2.8-0.2c0,0,1.3,0.7,2.3,0c0,0,1.4-0.9,2.5,0
		c0,0,1.2,0.7,2.1,0.2c0,0,0.9-0.9,2-0.3c0,0,2,1,3.2,0c0,0,1.6-0.6,2.4,0.2c0,0,1.3,0.8,2.4-0.2c0,0,1.6-0.6,2.5,0.4
		c0,0,1.1,0.7,1.8-0.2c0,0,1.6-1,2.5-0.1c0.9,0.9,1.9,0.6,2.4,0.2c0,0,1.3-0.7,2.3,0.1c0,0,1.8,0.6,3-0.3c0,0,1.3-0.5,2.2,0.3
		c0,0,1.3,0.5,2.4-0.3c0,0,0.7-0.3,1.2-0.2"/>
	<line class="st1" x1="20.9" y1="37" x2="21.4" y2="37"/>
	<line class="st1" x1="82" y1="37.4" x2="83.1" y2="37.4"/>
	<line class="st1" x1="41.8" y1="43.6" x2="44" y2="43.6"/>
	<line class="st1" x1="47.2" y1="43.6" x2="55.3" y2="43.6"/>
	<line class="st1" x1="57.4" y1="43.6" x2="69.8" y2="43.6"/>
	<line class="st1" x1="73.1" y1="43.6" x2="75.6" y2="43.6"/>
	<line class="st1" x1="50.1" y1="49.1" x2="59.9" y2="49.1"/>
	<line class="st1" x1="61.1" y1="49.1" x2="61.7" y2="49.1"/>
	<circle class="st1" cx="39.6" cy="46.6" r="0.6"/>
	<circle class="st1" cx="28.9" cy="47.2" r="0.6"/>
	<circle class="st1" cx="33.4" cy="43.6" r="1.1"/>
	<circle class="st5" cx="23.9" cy="25.1" r="0.6"/>
	<circle class="st3" cx="36.6" cy="16.8" r="1.1"/>
	<circle class="st3" cx="64.7" cy="15.8" r="1.1"/>
	<circle class="st3" cx="73.4" cy="19.9" r="2.3"/>
	<ellipse transform="matrix(0.3514 -0.9362 0.9362 0.3514 2.8318 68.0529)" class="st2" cx="50.5" cy="32" rx="0.7" ry="0.9"/>
</g>
<g>
	<path class="st6" d="M104.7,33.8c-0.4,0.1-0.8,0.1-1.2,0.1c0,0.4,0.1,0.9,0.1,1.3c0.3,0,0.6-0.1,0.9-0.1c0.1,0.3,0.2,0.5,0.2,0.8
		c-0.3,0.1-0.7,0.2-1,0.3c0,0.6,0.1,1.1,0.1,1.7c-0.2,0.1-0.5,0.1-0.8,0.1c-0.1-0.5-0.1-1.1-0.2-1.6c-0.4,0.1-0.8,0.1-1.2,0.1
		c-0.1-0.2-0.2-0.5-0.2-0.8c0.4-0.1,0.8-0.2,1.3-0.3c0-0.5-0.1-0.9-0.1-1.4c-0.4,0-0.9,0.1-1.3,0.1c-0.1-0.2-0.1-0.5-0.2-0.9
		c0.5,0,0.9-0.1,1.4-0.1c0-0.4,0-0.7-0.1-1.1c0.3,0,0.6-0.1,0.8-0.1c0,0.4,0.1,0.8,0.1,1.1c0.4,0,0.8-0.1,1.2-0.1
		C104.6,33.2,104.7,33.5,104.7,33.8z M107.4,30.6c-0.1,0.3-0.3,0.7-0.4,1c1.2,0.2,2.5,0.3,3.8,0.6c0,0.2,0.1,0.6,0.1,1.3
		c0,1-0.1,1.5-0.2,1.7c-0.1,0-0.3,0-0.4,0s-0.3,0-0.3,0c0-1.2,0-2,0-2.3c-1.1-0.1-2.2-0.2-3.3-0.4c-0.3,0.6-0.6,1.2-0.9,1.7
		c-0.3-0.1-0.6-0.2-0.8-0.4c0.5-1.1,1-2.3,1.6-3.4C106.9,30.4,107.1,30.4,107.4,30.6z M109.3,34c0.1,0.4,0.1,0.9,0.1,1.3
		c0,0.7,0,1.1-0.1,1.4c-0.3,0-1.1,0.1-2.3,0.1c0,0.5,0,0.8,0,0.9c0.5,0.1,1.2,0.1,2.2,0.1c0,0.3,0,0.6,0,0.7c-0.1,0-0.5,0.1-1.2,0.1
		c-0.8,0-1.4-0.1-1.8-0.2c-0.1,0-0.1-0.7-0.1-2.2c0-0.3,0-0.7,0.1-1.2c0.3,0,0.5,0,0.8,0c0,0.4,0,0.7,0,1c0.4,0,1,0,1.6,0
		c0-0.4,0-0.8,0-1.2c-0.7-0.1-1.5-0.2-2.3-0.3c0-0.2,0-0.5,0.1-0.7C107.8,33.8,108.8,33.9,109.3,34z"/>
	<path class="st6" d="M114.8,32.7c0-0.2,0-0.3,0-0.5c0.1,0,0.2-0.1,0.3-0.1c0.1,0,0.3,0,0.4,0.1c0,0.2,0,0.4,0,0.6
		c0.3,0,0.5,0,0.8,0.1c0-0.2,0-0.4,0-0.6c0.1,0,0.2-0.1,0.3-0.1c0.1,0,0.3,0,0.4,0.1c0,0.3,0,0.5,0,0.7c0.5,0.1,1,0.1,1.5,0.2
		c0.1,0.3,0.1,0.7,0.1,1.3c0.2,0,0.4,0,0.6,0v0.3c0,0.1,0,0.3,0,0.3h-0.5c0,0.6-0.1,1-0.1,1.2c-0.2,0.1-0.6,0.2-1.2,0.2h-0.3v0.3
		c0.7,0.2,1.4,0.4,2,0.6c-0.1,0.3-0.2,0.5-0.3,0.7c-0.6-0.1-1.2-0.3-1.8-0.5c0,0.5,0,1,0,1.5c-0.1,0-0.2,0-0.4,0c-0.1,0-0.2,0-0.3,0
		c0-0.8-0.1-1.7-0.1-2.6c-0.3,0-0.5,0-0.7,0c0,0.9,0,1.8-0.1,2.6c-0.1,0-0.2,0-0.4,0c-0.1,0-0.2,0-0.3,0c0-0.4,0-0.9,0-1.3
		c-0.3,0.3-0.7,0.5-1.1,0.7c-0.2-0.2-0.4-0.3-0.5-0.5c0.4-0.4,0.9-0.8,1.5-1.2c0-0.1,0-0.3,0-0.4c-0.4,0-0.7-0.1-1-0.1
		c0-0.1,0-0.2,0-0.3c0-0.1,0-0.3,0.1-0.3c0.3,0,0.6,0,0.9,0V35c-0.6,0-1.1-0.1-1.5-0.1c0,0,0-0.2,0-0.3s0-0.2,0-0.3c0.5,0,1,0,1.5,0
		c0-0.3,0-0.5,0-0.8c-0.4,0-0.7-0.1-1.1-0.1c0-0.2,0-0.4,0.1-0.6C114,32.7,114.4,32.7,114.8,32.7z M117.2,29.9
		c0.2,0.1,0.4,0.1,0.6,0.2c-0.1,0.4-0.2,0.7-0.4,1c0.5,0,1,0,1.3,0.1c0,0.1,0,0.2,0,0.3c0,0.2,0,0.3,0,0.3c-0.1,0-0.6,0-1.5,0
		c-2.3,0-3.5,0-3.7,0c0-0.1,0-0.2,0-0.3c0-0.1,0-0.2,0.1-0.3c0.4,0,0.8,0,1.1,0c-0.1-0.3-0.2-0.6-0.3-1c0.2-0.1,0.4-0.1,0.7-0.2
		c0.2,0.3,0.4,0.7,0.5,1.2c0.3,0,0.6,0,1,0C116.7,30.7,116.9,30.3,117.2,29.9z M115.5,34.2c0.2,0,0.5,0,0.7,0c0-0.2,0-0.4,0-0.6
		c-0.3,0-0.5,0-0.8-0.1v0.7H115.5z M115.5,35.7c0.2,0,0.5,0,0.7,0V35c-0.3,0-0.5,0-0.7,0V35.7z M117,34.3c0.2,0,0.5,0,0.7,0v-0.6
		c-0.2,0-0.5,0-0.7,0C117,33.9,117,34.1,117,34.3z M117,35.7c0.2,0,0.5,0,0.7,0V35c-0.2,0-0.5,0-0.7,0V35.7z M121.7,35.7
		c-0.2,0.6-0.4,1.1-0.6,1.5c0.5,0.2,1,0.5,1.5,0.8c0,0.1-0.1,0.2-0.2,0.3s-0.1,0.2-0.2,0.3c-0.5-0.2-1-0.4-1.5-0.6
		c-0.2,0.3-0.3,0.6-0.4,0.8c-0.3,0-0.6-0.1-0.8-0.3c0.4-1.1,0.9-2.1,1.3-3.1C121.2,35.5,121.4,35.6,121.7,35.7z M121.4,31.9
		c-0.1,0.4-0.2,0.8-0.3,1.1c0.3,0,0.5,0.1,0.8,0.1c0.6,0.1,1.1,0.3,1.4,0.4c0,0.5-0.2,1.1-0.5,1.8c-0.3,0-0.6-0.1-0.8-0.2
		c0.1-0.4,0.1-0.7,0.2-1c-0.5-0.1-0.9-0.2-1.3-0.3c-0.2,0.6-0.4,1-0.5,1.3c-0.3,0-0.5-0.1-0.7-0.2c0.3-1.2,0.6-2.3,1-3.3
		C121,31.7,121.2,31.8,121.4,31.9z"/>
	<path class="st6" d="M132.4,35.9c-0.7,0-1.4-0.2-2-0.5l-1.8-1.1c-0.4-0.2-0.7-0.4-1-0.4c-0.5,0-1.2,0.5-2.1,1.6l-0.6-0.6
		c0.9-1.2,1.8-1.8,2.7-1.8c0.5,0,0.9,0.1,1.4,0.4l2,1.2c0.4,0.3,0.9,0.4,1.4,0.4s1.2-0.5,2.1-1.5l0.6,0.6
		C134.2,35.3,133.3,35.9,132.4,35.9z"/>
	<path class="st6" d="M139.1,30.7c0.2-0.3,0.3-0.6,0.5-0.9c0.2,0.1,0.4,0.2,0.7,0.3c-0.1,0.2-0.2,0.4-0.3,0.6c0.5,0,1.1,0.1,1.6,0.2
		v0.3c0,0.2,0,0.3,0,0.4c-0.7,0-1.4,0-2-0.1c-0.2,0.3-0.4,0.6-0.6,0.9c0.3,0,0.6,0.1,0.9,0.1c0-0.2,0-0.4,0-0.6c0.1,0,0.2,0,0.3,0
		s0.2,0,0.3,0c0,0.3,0,0.5,0,0.7c0.3,0,0.6,0.1,0.9,0.1c0,0.2,0,0.4-0.1,0.6c-0.3,0-0.6,0-0.8,0V34l0,0c0.3,0,0.6,0,0.8,0
		c0,0.1,0,0.2,0,0.3s0,0.2,0,0.3c-0.2,0-0.5,0.1-0.8,0.1c0,0.4,0,0.7-0.1,1c-0.1,0-0.2,0-0.3,0s-0.2,0-0.3,0c0-0.3-0.1-0.6-0.1-0.9
		c-0.5,0-1.1,0.1-1.7,0.1c-0.1-0.2-0.2-0.4-0.2-0.7c0.6,0,1.2-0.1,1.8-0.1l0,0c0-0.2,0-0.4,0-0.6c-1-0.1-1.7-0.2-2-0.4
		c0.2-0.4,0.5-0.9,0.8-1.6c-0.3,0-0.5,0-0.7-0.1c0,0,0-0.2,0-0.4c0-0.1,0-0.2,0.1-0.3C138.4,30.7,138.8,30.7,139.1,30.7z M144.1,36
		c0,0.2,0.1,0.8,0.1,1.7s0,1.4-0.1,1.6c-0.5,0.1-1.4,0.1-2.6,0.1c-0.9,0-1.6-0.1-2-0.2c-0.1-0.4-0.1-0.8-0.1-1.3s0-1,0.1-1.4
		c0.1,0,0.3,0,0.4,0c0.1,0,0.3,0,0.4,0c0,0.3,0,0.5,0,0.8c0.5,0.1,1,0.1,1.5,0.2c0,0.2,0,0.4-0.1,0.7c-0.5,0-0.9,0-1.4-0.1v0.7
		c0.1,0,0.5,0.1,1.2,0.1c0.9,0,1.5,0,1.8,0c0-0.3,0.1-0.6,0.1-1c0-0.3,0-0.6,0-0.9c-0.8,0-1.5,0-2.1-0.1c0-0.1,0-0.2,0-0.4
		c0-0.1,0-0.3,0-0.3C142.3,35.9,143.3,35.9,144.1,36z M145.8,31.4c-1.1,0.3-2.3,0.4-3.4,0.5c-0.1-0.2-0.1-0.4-0.1-0.7
		c1.1-0.2,2.3-0.4,3.5-0.5C145.8,31,145.8,31.2,145.8,31.4z M143.3,33.9c-0.1,0.6-0.2,1.1-0.4,1.6c-0.2,0-0.5,0-0.7-0.1
		c0-0.7,0.2-1.8,0.6-3.3c0.2,0,0.5,0,0.7,0.1c0,0.1,0,0.3-0.1,0.6c0.9,0,1.8,0.1,2.8,0.2c0,0.2,0,0.4-0.1,0.6c-0.3,0-0.6,0-0.9,0
		c0,0.7,0.1,1.4,0.1,2c-0.1,0-0.2,0.1-0.3,0.1s-0.2,0-0.3,0c-0.1-0.7-0.2-1.4-0.2-2.1c-0.4,0-0.8-0.1-1.1-0.1
		C143.4,33.6,143.3,33.7,143.3,33.9z"/>
	<path class="st6" d="M152.9,34.8c0.3-0.7,0.5-1.4,0.8-2.1c0.3,0,0.6,0.1,0.7,0.3c-0.2,0.6-0.4,1.2-0.6,1.8c1.3,0,2.6,0.1,3.9,0.1
		v0.4c0,0.2,0,0.3,0,0.4c-1.5,0-2.9,0-4.1,0c-0.4,1.1-0.8,2.1-1.2,3.2c-0.3,0-0.6-0.1-0.8-0.3c0.3-1,0.7-1.9,1-2.9
		c-0.9,0-1.6,0-2.3-0.1c0-0.1,0-0.2,0-0.4c0-0.1,0-0.3,0.1-0.4C151.2,34.8,152.1,34.8,152.9,34.8z M157.7,31.1c0,0.3,0,0.5-0.1,0.8
		c-2.5,0-5-0.1-7.3-0.3c0-0.3,0-0.6,0.1-0.8C152.9,30.8,155.3,30.9,157.7,31.1z M156.2,36.4c-0.1,0.6-0.1,1.2-0.2,1.9
		c0.5,0,1.1,0,1.8-0.1c0,0.1,0.1,0.2,0.1,0.3s0,0.2,0,0.3c-0.6,0.1-1.2,0.1-1.8,0.1c-0.5,0-0.7,0-0.8-0.1c0-0.5,0.1-1.4,0.3-2.6
		C155.7,36.4,155.9,36.4,156.2,36.4z"/>
	<path class="st6" d="M164,33.6c0,1.3-0.2,2.5-0.3,3.8c0.3,0,0.6,0.1,0.9,0.1c0,0.2,0,0.4,0,0.6c-0.5,0-1,0-1.6-0.1
		c0-1.2,0.2-2.5,0.3-3.7c-0.5-0.1-1.1-0.2-1.6-0.3c0-0.2,0-0.4,0.1-0.7C162.4,33.4,163.2,33.5,164,33.6z M164,31.8
		c0,0.2-0.1,0.4-0.2,0.5c-0.6,0-1.1-0.2-1.6-0.6c0-0.2,0.1-0.4,0.2-0.6C162.9,31.3,163.4,31.5,164,31.8z M170.5,31.4
		c0.1,0.4,0.1,0.9,0.1,1.3c0,1.3,0,2.1-0.1,2.6c-0.5,0.1-1.6,0.1-3.3,0.1c0,1.1,0,1.8,0,1.9c0.6,0.1,1.4,0.1,2.5,0.1
		c0,0.3,0,0.5,0,0.7c-0.1,0-0.5,0.1-1.1,0.1c-0.9,0-1.6-0.1-2.1-0.2c-0.1,0-0.1-0.6-0.1-1.8c0-0.2,0-0.5,0.1-0.8c-0.2,0-0.3,0-0.4,0
		c0-0.2-0.1-0.5-0.1-0.7c0.9-0.1,2.2-0.1,3.9-0.1c0-0.8,0-1.7,0-2.5c-1.4-0.1-2.9-0.3-4.4-0.4c0-0.2,0-0.5,0.1-0.7
		C168,31.1,169.7,31.3,170.5,31.4z"/>
	<path class="st6" d="M177,36.4c-0.4,1-0.9,1.9-1.5,2.8c-0.3-0.1-0.5-0.2-0.6-0.4c0.5-0.9,0.7-1.5,0.8-1.9c-0.3-0.1-0.9-0.4-1.7-0.7
		c0-0.3,0.1-0.5,0.3-0.7C175.2,35.7,176.1,36,177,36.4z M179,33.9c0.2-0.9,0.4-1.7,0.5-2.5c-1.4-0.1-2.7-0.2-3.8-0.2
		c0-0.3,0-0.6,0.1-0.8c1.6,0.1,3.2,0.2,4.8,0.3c-0.1,0.7-0.2,1.3-0.4,2c-0.1,0.5-0.2,0.9-0.3,1.2c0.8,0,1.5,0.1,2.3,0.1v0.3
		c0,0.2,0,0.3,0,0.4c-1.2,0-2.4,0-3.5,0c0.3,1.4,0.4,2.9,0.5,4.3c-0.3,0.2-0.8,0.3-1.6,0.3c-0.1-0.2-0.1-0.5-0.1-0.7
		c0.2,0,0.5-0.1,0.7-0.1c-0.1-1.3-0.3-2.5-0.4-3.7c-1.5,0-2.7-0.1-3.8-0.2c0,0,0-0.2,0-0.4c0-0.1,0-0.3,0.1-0.4
		C175.7,33.8,177.4,33.8,179,33.9z M178.6,32.2c0,0.1,0,0.2,0,0.4c0,0.1,0,0.2,0,0.3c-0.4,0-1,0.1-1.9,0.1c-0.4,0-0.6,0-0.8,0
		c0-0.1-0.1-0.2-0.1-0.3c0-0.1,0-0.3,0-0.3c0.1,0,0.4,0,0.9,0C177.6,32.2,178.2,32.2,178.6,32.2z M182.2,38.1c0,0.1-0.1,0.2-0.2,0.3
		c-0.1,0.1-0.1,0.2-0.2,0.3c-0.5-0.2-1-0.4-1.4-0.8c0.1-0.3,0.3-0.5,0.5-0.7C181.3,37.5,181.7,37.8,182.2,38.1z M182.4,35.6
		c-0.4,0.4-0.9,0.7-1.4,0.9c-0.2-0.2-0.4-0.4-0.6-0.6c0.4-0.4,0.9-0.7,1.5-0.9C182.1,35.1,182.3,35.3,182.4,35.6z"/>
</g>
</svg>
