<?xml version="1.0" encoding="utf-8"?>
<!-- Generator: Adobe Illustrator 21.0.0, SVG Export Plug-In . SVG Version: 6.00 Build 0)  -->
<svg version="1.1" id="图层_1" xmlns="http://www.w3.org/2000/svg" xmlns:xlink="http://www.w3.org/1999/xlink" x="0px" y="0px"
	 viewBox="0 0 255.1 62.4" style="enable-background:new 0 0 255.1 62.4;" xml:space="preserve">
<style type="text/css">
	.st0{fill:#F39800;}
	.st1{fill:#FFFFFF;}
	.st2{fill:url(#XMLID_17_);}
	.st3{fill:url(#XMLID_18_);}
	.st4{fill:#393048;}
	.st5{fill:#E17522;}
	.st6{fill:url(#SVGID_1_);}
</style>
<g id="XMLID_13_">
	<path id="XMLID_15_" class="st1" d="M36.1,15.4h-7.1H11.4h-7v-15h43.7c10.7,0,19.4,8.5,19.6,19.2h0v42.2h-15v-21V29
		C52.8,19.9,45.2,15.4,36.1,15.4z"/>
	<path id="XMLID_14_" class="st1" d="M38.9,61.9c-6.3,0-11.9-3-15.5-7.5l0,0l0.2,0.1l14.3-14.3c1.8-1.4,2.9-3.5,2.9-5.9
		c0-4.2-3.4-7.5-7.5-7.5c-2.4,0-4.5,1.1-5.9,2.9l-8.1,8.1V21.5h-15v21v-0.2c0,10.7,8.5,19.3,19.1,19.6v0h0.4c0.1,0,0.1,0,0.2,0
		c0.1,0,0.1,0,0.2,0h20.3"/>
</g>
<g id="XMLID_9_">
	<path id="XMLID_12_" class="st1" d="M156.1,52.2C156.1,52.2,156.1,52.2,156.1,52.2c-6.2-3.5-12.9-7.1-20.4-10.8
		c1.4-3,2.1-6.5,2.1-10.6v-7.9h-5.3v7.6c0,5.8-1.6,10.2-4.7,13.2c-3.4,3.4-9.4,6.3-17.9,8.9c0,0,0,0,0,0c-0.1,0-0.2,0.1-0.3,0.1
		c-0.5,0.3-0.5,0.8-0.1,1.1l2.9,2.1c0.3,0.2,0.7,0.3,1.1,0.2c0.1,0,0.1,0,0.2,0c0.1,0,0.2-0.1,0.3-0.1c0,0,0,0,0,0
		c8.2-2.8,14.1-6.1,18-9.7c0.5-0.5,0.9-1,1.4-1.5c6.6,3.5,12.8,7.1,18.6,10.8c0,0,0,0,0,0c0.1,0.1,0.2,0.2,0.3,0.2
		c0.5,0.2,1.2,0.1,1.5-0.2l2.4-2.4C156.7,52.9,156.6,52.5,156.1,52.2z"/>
	<path id="XMLID_11_" class="st1" d="M111.5,36.1c1.6-3.6,2.8-6.7,3.6-9.4l0.1-0.4l0,0c0-0.1,0-0.2,0-0.3c-0.1-0.2-0.2-0.4-0.5-0.5
		l-4-2c-0.2-0.1-0.5-0.1-0.8-0.2l0,0l-1.5,0h-6.2l2.8-1.9c-0.8-0.6-1.5-1.2-2.3-1.9l9.7-8.7c0.1-0.1,0.3-0.2,0.4-0.3
		c0.1-0.1,0.2-0.2,0.2-0.3c0.1-0.2,0.1-0.4,0-0.7c-0.1-0.2-0.3-0.5-0.7-0.6l-5-2.4c-0.2-0.1-0.4-0.2-0.6-0.2l0,0H87.2l0,0
		c-0.3,0-0.7,0.2-0.9,0.4c-0.4,0.4-0.3,1,0.2,1.3l3.8,1.9C90.6,9.9,90.8,10,91,10l0,0l15.6,0l-7.5,6.8c-1.5-1.1-3.2-2.2-4.9-3.3l0,0
		c0,0,0,0,0,0c0,0,0,0,0,0l0,0c-0.9-0.6-2.4-0.7-3.4,0c-1,0.6-1,1.7-0.1,2.3l0,0c3.1,2.2,6.2,4.7,9.3,7.4H86.1l0,0
		c-0.3,0-0.7,0.2-0.9,0.4c-0.4,0.4-0.3,1,0.2,1.3l3.8,1.9c0.2,0.1,0.5,0.1,0.7,0.1l0,0l7.3,0v21c0,2.3-1.3,3.4-4,3.4
		c-2.4,0-4.8-0.1-7.2-0.3c0,0,0,0,0,0c-0.5-0.1-1.1,0.1-1.5,0.4c-0.5,0.5-0.4,1.1,0.3,1.5l4.3,2.2c0.2,0.1,0.5,0.2,0.7,0.2
		c0,0,0,0,0,0l4.7,0c5.3,0,8-2,8-6V26.8h7.1c-0.9,3.1-1.9,5.8-3.1,8C108.4,35.3,110,35.7,111.5,36.1z"/>
	<path id="XMLID_10_" class="st1" d="M119.9,9.6c0.2,0.1,0.5,0.1,0.8,0.1l0,0l11.3,0l-1.8,7.3h-12v26.1h5.2V20.7h24.2v22.4h5.2h0.5
		l-0.4-23l0,0c0-0.1,0-0.2,0-0.3c-0.1-0.2-0.2-0.4-0.5-0.5l-4-2c-0.2-0.1-0.5-0.1-0.7-0.2l0,0h-2.1h-9.9l2.1-7.3H154h0.2l0,0
		c0.2,0,0.3,0,0.5,0c0.1,0,0.1,0,0.2,0c0.1,0,0.3-0.1,0.4-0.2c0.1-0.1,0.2-0.2,0.3-0.3c0.2-0.3,0.1-0.6-0.2-0.8l-2.9-2.2
		c-0.3-0.2-0.6-0.3-1-0.2l0,0h-34.2l0,0c-0.5,0-1,0.1-1.3,0.4c-0.4,0.4-0.3,1,0.2,1.3L119.9,9.6z"/>
</g>
<g id="XMLID_2_">
	<path id="XMLID_8_" class="st1" d="M213.7,21.1l0.7,0.2c1,0.4,2.3,0.1,2.8-0.7l3.1-4.4l0.4-0.1l23.5,0.1l0,0c0.1,0,0.3,0,0.4-0.1
		c0.1,0,0.1,0,0.2-0.1c0.1-0.1,0.2-0.1,0.3-0.2c0.1-0.1,0.1-0.1,0.2-0.2c0.1-0.2,0.1-0.3,0-0.5c-0.1-0.2-0.2-0.4-0.4-0.5l-3.5-1.8
		c-0.2-0.1-0.4-0.1-0.5-0.1l0,0h-17.5h-0.6l3.2-4.6c0.5-0.7,0.1-1.6-1-1.9l-0.7-0.2c-1-0.4-2.3-0.1-2.8,0.7l-8.7,12.3
		C212.3,19.9,212.7,20.7,213.7,21.1z"/>
	<path id="XMLID_7_" class="st1" d="M186.1,26.5l3.3,0c0,0,0.1,0,0.1,0c0.3,0,0.5-0.2,0.7-0.3c0,0,0-0.1,0.1-0.1
		c0-0.1,0.1-0.1,0.1-0.2h0l0,0v0v0l0.1-15.1l-0.1,0c0-0.1,0.1-0.2,0-0.2c-0.1-0.1-0.2-0.3-0.4-0.4l-3-1.4c-0.5-0.2-1.1-0.1-1.5,0.2
		c-0.1,0.1-0.2,0.2-0.2,0.4l0,0v16.5h0C185.3,26.2,185.7,26.5,186.1,26.5z"/>
	<path id="XMLID_6_" class="st1" d="M202,26.9l3.3,0c0,0,0.1,0,0.1,0c0.3,0,0.5-0.1,0.7-0.3c0,0,0-0.1,0.1-0.1
		c0-0.1,0.1-0.1,0.1-0.2h0l0.1-17l-0.1,0c0-0.1,0.1-0.2,0-0.3c-0.1-0.2-0.2-0.3-0.4-0.4l-3-1.5c-0.5-0.2-1.1-0.1-1.5,0.2
		c-0.1,0.1-0.2,0.3-0.2,0.4l0,0v18.6h0C201.2,26.7,201.6,26.9,202,26.9z"/>
	<path id="XMLID_5_" class="st1" d="M235.6,27.5L235.6,27.5c0.1,0,0.1,0.1,0.2,0.1c0.1,0,0.3,0,0.5,0l3-0.9c0.5-0.1,0.9-0.5,0.9-0.8
		c0-0.1,0-0.2-0.1-0.3l0,0l-10.8-7.5l0,0c-0.2-0.1-0.6,0-0.9,0.2l-2.4,1.6c0,0,0,0-0.1,0.1c-0.2,0.1-0.3,0.3-0.3,0.5c0,0,0,0,0,0.1
		c0,0,0,0.1,0.1,0.1l0,0L235.6,27.5z"/>
	<path id="XMLID_4_" class="st1" d="M230.2,34.6c4.9,2.1,10.4,4,16.4,5.6c0,0,0,0,0,0c0.1,0,0.1,0.1,0.1,0.1
		c0.6,0.2,1.4,0.1,1.7-0.3l2.2-2.8c0.3-0.4,0.1-1-0.5-1.2c-0.2-0.1-0.4-0.1-0.5-0.1c-12.6-2.6-22.8-6.6-30.5-11.9c0,0,0-0.1,0-0.1
		c0-0.1,0-0.1,0-0.2c-0.1-0.2-0.2-0.4-0.4-0.5c-0.2-0.2-0.5-0.3-0.9-0.3l-5.1-0.1c-0.6,0-1.1,0.3-1.3,0.7c-1.6,1.2-3.4,2.4-5.4,3.4
		l-1.1,0.5c-6.6,3.5-15.2,6.5-25.8,9c0,0,0,0,0,0c-0.2,0-0.3,0.1-0.5,0.2c-0.5,0.3-0.7,0.8-0.3,1.2l2.7,2.3c0.3,0.2,0.7,0.3,1.1,0.3
		c0.1,0,0.1,0,0.2,0c0.1,0,0.1,0,0.2-0.1c0,0,0,0,0,0c5.6-1.4,11.5-3.6,16.8-5.9v3.2h12.3V42h-18.6h-0.7h-6.3v3.7h6.3v0l0.7,0h0
		l18.6,0v7.1h-25.5v0h-7v3.6h7v0H248c0.1,0,0.1,0,0.2,0h0.2l0,0c0.1,0,0.1,0,0.2,0c0.1,0,0.1,0,0.2,0c0.1,0,0.3-0.1,0.4-0.2
		c0,0,0.1,0,0.1-0.1c0,0,0.1-0.1,0.1-0.1c0.1-0.1,0.2-0.3,0.2-0.5c0-0.2-0.1-0.4-0.3-0.5l-2.9-1.9c-0.3-0.2-0.6-0.2-1-0.2l0,0h-13.5
		l3.6-3.8c0.3-0.3,0.2-0.7-0.3-0.9l-2.8-1.3c-0.4-0.2-1-0.1-1.3,0.2l-3.9,4c-0.3,0.3-0.2,0.7,0.3,0.9l2,0.9h-11.9v-7.2l24.4,0l0,0
		c0.1,0,0.2,0,0.3,0c0.1,0,0.1,0,0.2,0c0.2,0,0.3-0.1,0.4-0.2c0,0,0.1,0,0.1-0.1c0.1,0,0.1-0.1,0.1-0.1c0.1-0.2,0.2-0.3,0.2-0.5
		c0-0.2-0.1-0.4-0.3-0.5l-3.3-2c-0.2-0.1-0.5-0.2-0.8-0.2l0,0h-21.4v-4.3h13.8l0,0c0.1,0,0.1,0,0.2,0c0.1,0,0.1,0,0.2,0
		c0.1,0,0.3-0.1,0.4-0.2c0,0,0.1,0,0.1-0.1c0,0,0.1-0.1,0.1-0.1c0.1-0.2,0.2-0.3,0.2-0.5c0-0.2-0.1-0.4-0.3-0.5l-2.9-2
		c-0.2-0.1-0.5-0.2-0.8-0.2l0,0h-28c6.5-2.8,11.8-5.6,14.2-6.8L230.2,34.6z"/>
	<path id="XMLID_3_" class="st1" d="M198.3,52.7l2.9-1.3c0.4-0.2,0.5-0.6,0.3-0.9l-3.9-4.2c-0.3-0.3-0.8-0.4-1.3-0.2l-2.9,1.3
		c-0.4,0.2-0.5,0.6-0.3,0.9l3.9,4.2C197.3,52.8,197.9,52.9,198.3,52.7z"/>
</g>
<ellipse id="XMLID_1_" class="st1" cx="165.3" cy="31.2" rx="2.8" ry="2.7"/>
</svg>
