<?xml version="1.0" encoding="UTF-8"?>
<svg xmlns:xlink="http://www.w3.org/1999/xlink" width="12px" height="12px" viewBox="0 0 12 12" version="1.1"
     xmlns="http://www.w3.org/2000/svg">
    <!-- Generator: Sketch 43 (38999) - http://www.bohemiancoding.com/sketch -->
    <title>Mask</title>
    <desc>Created with Sketch.</desc>
    <defs>
        <path d="M0,2.0085302 C0,0.899249601 0.901950359,0 2.0085302,0 L9.9914698,0 C11.1007504,0 12,0.901950359 12,2.0085302 L12,9.9914698 C12,11.1007504 11.0980496,12 9.9914698,12 L2.0085302,12 C0.899249601,12 0,11.0980496 0,9.9914698 L0,2.0085302 Z M3.62307692,9.16153846 C3.62307692,9.36923077 3.43846154,9.55384615 3.23076923,9.55384615 L2.83846154,9.55384615 C2.63076923,9.55384615 2.44615385,9.36923077 2.44615385,9.16153846 L2.44615385,6.99230769 C2.44615385,6.78461538 2.63076923,6.6 2.83846154,6.6 L3.23076923,6.6 C3.43846154,6.6 3.62307692,6.78461538 3.62307692,6.99230769 L3.62307692,9.16153846 Z M5.60769231,9.16153846 C5.60769231,9.36923077 5.42307692,9.55384615 5.21538462,9.55384615 L4.82307692,9.55384615 C4.61538462,9.55384615 4.43076923,9.36923077 4.43076923,9.16153846 L4.43076923,4.01538462 C4.43076923,3.80769231 4.61538462,3.62307692 4.82307692,3.62307692 L5.21538462,3.62307692 C5.42307692,3.62307692 5.60769231,3.80769231 5.60769231,4.01538462 L5.60769231,9.16153846 Z M7.59230769,9.16153846 C7.59230769,9.36923077 7.40769231,9.55384615 7.2,9.55384615 L6.80769231,9.55384615 C6.6,9.55384615 6.41538462,9.36923077 6.41538462,9.16153846 L6.41538462,2.83846154 C6.41538462,2.63076923 6.6,2.44615385 6.80769231,2.44615385 L7.2,2.44615385 C7.40769231,2.44615385 7.59230769,2.63076923 7.59230769,2.83846154 L7.59230769,9.16153846 Z M8.87692308,9.16153846 C8.87692308,9.36923077 8.7984917,9.55384615 8.71025641,9.55384615 L8.54358974,9.55384615 C8.45535445,9.55384615 8.37692308,9.36923077 8.37692308,9.16153846 L8.37692308,5.4 C8.37692308,5.19230769 8.45535445,5.00769231 8.54358974,5.00769231 L8.71025641,5.00769231 C8.7984917,5.00769231 8.87692308,5.19230769 8.87692308,5.4 L8.87692308,9.16153846 Z"
              id="path-1"></path>
    </defs>
    <g id="-预见" stroke="none" stroke-width="1" fill="none" fill-rule="evenodd">
        <g id="太保组合" transform="translate(-1020.000000, -184.000000)">
            <g id="icons/utility/metrics-copy" transform="translate(1020.000000, 184.000000)">
                <mask id="mask-2" fill="white">
                    <use xlink:href="#path-1"></use>
                </mask>
                <use id="Mask" fill="#87D068" xlink:href="#path-1"></use>
            </g>
        </g>
    </g>
</svg>