<?xml version="1.0" standalone="no"?><!DOCTYPE svg PUBLIC "-//W3C//DTD SVG 1.1//EN" "http://www.w3.org/Graphics/SVG/1.1/DTD/svg11.dtd"><svg t="1497253419201" class="icon" style="" viewBox="0 0 1024 1024" version="1.1" xmlns="http://www.w3.org/2000/svg" p-id="6143" xmlns:xlink="http://www.w3.org/1999/xlink" width="200" height="200"><defs><style type="text/css"></style></defs><path d="M783.936 240.032c-149.952-149.952-393.952-149.952-543.904 0-149.984 149.984-149.984 393.984-0.032 543.936 149.984 149.984 393.984 149.984 543.936 0C933.92 634.016 933.92 390.016 783.936 240.032zM673.216 639.296c9.376 9.376 9.376 24.576 0 33.952s-24.576 9.376-33.952 0L512 545.952l-127.264 127.264c-9.376 9.376-24.576 9.376-33.952 0s-9.376-24.576 0-33.952L478.048 512l-127.264-127.264c-9.376-9.376-9.376-24.576 0-33.952 9.376-9.376 24.576-9.376 33.952 0L512 478.08l127.264-127.296c9.376-9.376 24.576-9.376 33.952 0 9.376 9.376 9.376 24.576 0 33.952L545.952 512 673.216 639.296z" p-id="6144" fill="#bfbfbf"></path></svg>