<?xml version="1.0" encoding="UTF-8"?>
<svg width="13px" height="12px" viewBox="0 0 13 12" version="1.1" xmlns="http://www.w3.org/2000/svg" xmlns:xlink="http://www.w3.org/1999/xlink">
    <!-- Generator: Sketch 43 (38999) - http://www.bohemiancoding.com/sketch -->
    <title>Shape</title>
    <desc>Created with Sketch.</desc>
    <defs></defs>
    <g id="脸谱" stroke="none" stroke-width="1" fill="none" fill-rule="evenodd">
        <g id="上市公司展台" transform="translate(-1150.000000, -28.000000)" fill="#54698D">
            <g id="Group-5" transform="translate(911.000000, 18.000000)">
                <path d="M245.28516,10 C241.831153,10 239,12.7027027 239,16 C239,19.2972973 241.831153,22 245.28516,22 C248.739167,22 251.57032,19.2972973 251.57032,16 C251.57032,12.7027027 248.739167,10 245.28516,10 L245.28516,10 Z M246.58749,16.2162162 L248.625921,18.1621622 C248.682544,18.2702703 248.682544,18.3783784 248.625921,18.4864865 L247.889821,19.1891892 C247.776575,19.2972973 247.606706,19.2972973 247.49346,19.1891892 L245.455029,17.2432432 C245.341783,17.1351351 245.228537,17.1351351 245.115291,17.2432432 L243.076861,19.1891892 C242.963614,19.2972973 242.793745,19.2972973 242.680499,19.1891892 L241.944399,18.4864865 C241.887776,18.3783784 241.887776,18.2702703 241.944399,18.1621622 L243.98283,16.2162162 C244.096076,16.1081081 244.096076,15.9459459 243.98283,15.8378378 L241.944399,13.8918919 C241.831153,13.7837838 241.831153,13.6216216 241.944399,13.5135135 L242.680499,12.8108108 C242.793745,12.7567568 242.906991,12.7567568 243.020238,12.8108108 L245.115291,14.8108108 C245.228537,14.9189189 245.341783,14.9189189 245.455029,14.8108108 L247.49346,12.8648649 C247.606706,12.7567568 247.776575,12.7567568 247.889821,12.8648649 L248.625921,13.5675676 C248.682544,13.6756757 248.682544,13.7837838 248.625921,13.8918919 L246.58749,15.8378378 C246.474244,15.9459459 246.474244,16.1081081 246.58749,16.2162162 L246.58749,16.2162162 Z" id="Shape"></path>
            </g>
        </g>
    </g>
</svg>