<?xml version="1.0" encoding="UTF-8"?>
<svg width="30px" height="30px" viewBox="0 0 30 30" version="1.1" xmlns="http://www.w3.org/2000/svg" xmlns:xlink="http://www.w3.org/1999/xlink">
    <!-- Generator: Sketch 43 (38999) - http://www.bohemiancoding.com/sketch -->
    <title>Group 5 Copy</title>
    <desc>Created with Sketch.</desc>
    <defs></defs>
    <g id="-预见" stroke="none" stroke-width="1" fill="none" fill-rule="evenodd">
        <g id="私募图谱1" transform="translate(-312.000000, -136.000000)" stroke="#454D5A">
            <g id="Group-5-Copy" transform="translate(313.000000, 137.000000)">
                <circle id="Oval-2" cx="14" cy="14" r="14"></circle>
                <g id="Group-4" transform="translate(6.000000, 6.000000)">
                    <g id="Group-3">
                        <path d="M6.53212554,2.13765182 C6.03562819,0.885479547 4.8135292,0 3.38461538,0 C1.51534392,0 0,1.51534392 0,3.38461538 C0,5.25388685 1.51534392,6.76923077 3.38461538,6.76923077 C3.92851979,6.76923077 4.44245916,6.64093521 4.89782214,6.41295547 L6.76923077,6.41295547 L6.76923077,2.13765182 L6.53212554,2.13765182 Z" id="Combined-Shape"></path>
                        <path d="M15.7628948,2.13765182 C15.2663974,0.885479547 14.0442984,4.97379915e-14 12.6153846,4.97379915e-14 C10.7461132,4.97379915e-14 9.23076923,1.51534392 9.23076923,3.38461538 C9.23076923,5.25388685 10.7461132,6.76923077 12.6153846,6.76923077 C13.159289,6.76923077 13.6732284,6.64093521 14.1285914,6.41295547 L16,6.41295547 L16,2.13765182 L15.7628948,2.13765182 Z" id="Combined-Shape-Copy" transform="translate(12.615385, 3.384615) rotate(-270.000000) translate(-12.615385, -3.384615) "></path>
                    </g>
                    <g id="Group-3-Copy" transform="translate(8.000000, 12.500000) rotate(-180.000000) translate(-8.000000, -12.500000) translate(0.000000, 9.000000)">
                        <path d="M6.53212554,2.13765182 C6.03562819,0.885479547 4.8135292,0 3.38461538,0 C1.51534392,0 0,1.51534392 0,3.38461538 C0,5.25388685 1.51534392,6.76923077 3.38461538,6.76923077 C3.92851979,6.76923077 4.44245916,6.64093521 4.89782214,6.41295547 L6.76923077,6.41295547 L6.76923077,2.13765182 L6.53212554,2.13765182 Z" id="Combined-Shape"></path>
                        <path d="M15.7628948,2.13765182 C15.2663974,0.885479547 14.0442984,5.5067062e-14 12.6153846,5.5067062e-14 C10.7461132,5.5067062e-14 9.23076923,1.51534392 9.23076923,3.38461538 C9.23076923,5.25388685 10.7461132,6.76923077 12.6153846,6.76923077 C13.159289,6.76923077 13.6732284,6.64093521 14.1285914,6.41295547 L16,6.41295547 L16,2.13765182 L15.7628948,2.13765182 Z" id="Combined-Shape-Copy" transform="translate(12.615385, 3.384615) rotate(-270.000000) translate(-12.615385, -3.384615) "></path>
                    </g>
                </g>
            </g>
        </g>
    </g>
</svg>