<?xml version="1.0" encoding="UTF-8"?>
<svg width="23px" height="23px" viewBox="0 0 23 23" version="1.1" xmlns="http://www.w3.org/2000/svg" xmlns:xlink="http://www.w3.org/1999/xlink">
    <!-- Generator: Sketch 43 (38999) - http://www.bohemiancoding.com/sketch -->
    <title>Shape</title>
    <desc>Created with Sketch.</desc>
    <defs></defs>
    <g id="-预见" stroke="none" stroke-width="1" fill="none" fill-rule="evenodd">
        <g id="搜索-" transform="translate(-1327.000000, -490.000000)" fill="#CFCFCF">
            <path d="M1329.895,490.28 C1329.86167,490.308571 1329.82833,490.344286 1329.795,490.38 C1329.83136,490.344286 1329.86167,490.308571 1329.895,490.28 L1329.895,490.28 Z M1329.6625,490.3825 C1329.625,490.414643 1329.5875,490.446786 1329.5525,490.4825 C1329.5875,490.446786 1329.625,490.414643 1329.6625,490.3825 L1329.6625,490.3825 Z M1349.2075,508.865 C1349.0375,509.035 1348.79,509.13 1348.55,509.13 L1343.935,509.13 L1343.935,510.5675 C1343.935,511.54 1343.145,512.33 1342.1725,512.33 L1334.295,512.33 C1333.3225,512.33 1332.5325,511.54 1332.5325,510.5675 L1332.5325,509.13 L1327.895,509.13 C1327.4025,509.13 1327,508.73 1327,508.235 C1327,507.74 1327.4,507.34 1327.895,507.34 L1328.685,507.34 L1328.685,491.7625 C1328.685,490.79 1329.475,490 1330.4475,490 L1346.2725,490 C1347.245,490 1348.035,490.79 1348.035,491.7625 L1348.035,507.34 L1348.55,507.34 C1349.0425,507.34 1349.47,507.74 1349.47,508.235 C1349.47,508.4725 1349.3775,508.695 1349.2075,508.865 L1349.2075,508.865 Z M1334.2925,510.5625 L1342.165,510.5625 L1342.165,509.115 L1334.2925,509.115 L1334.2925,510.5625 L1334.2925,510.5625 Z M1346.27,491.765 L1330.4475,491.765 L1330.4475,507.34 L1332.7275,507.34 L1346.27,507.34 L1346.27,491.765 L1346.27,491.765 Z M1338.2225,504.34 C1337.725,504.34 1337.3225,503.9375 1337.3225,503.44 L1337.3225,495.09 C1337.3225,494.5925 1337.725,494.19 1338.2225,494.19 C1338.72,494.19 1339.1225,494.5925 1339.1225,495.09 L1339.1225,503.44 C1339.1225,503.9375 1338.72,504.34 1338.2225,504.34 L1338.2225,504.34 Z M1333.3475,504.34 C1332.85,504.34 1332.4475,503.9375 1332.4475,503.44 L1332.4475,495.09 C1332.4475,494.5925 1332.85,494.19 1333.3475,494.19 C1333.845,494.19 1334.2475,494.5925 1334.2475,495.09 L1334.2475,503.44 C1334.2475,503.9375 1333.845,504.34 1333.3475,504.34 L1333.3475,504.34 Z M1342.1475,503.44 L1342.1475,495.09 C1342.1475,494.5925 1342.55,494.19 1343.0475,494.19 C1343.545,494.19 1343.9475,494.5925 1343.9475,495.09 L1343.9475,503.44 C1343.9475,503.9375 1343.545,504.34 1343.0475,504.34 C1342.55,504.34 1342.1475,503.9375 1342.1475,503.44 Z" id="Shape" transform="translate(1338.235000, 501.165000) scale(1, -1) translate(-1338.235000, -501.165000) "></path>
        </g>
    </g>
</svg>