<?xml version="1.0" encoding="UTF-8"?>
<svg xmlns:xlink="http://www.w3.org/1999/xlink" width="18px" height="18px" viewBox="0 0 18 18" version="1.1" xmlns="http://www.w3.org/2000/svg">
    <!-- Generator: Sketch 43 (38999) - http://www.bohemiancoding.com/sketch -->
    <title>Mask</title>
    <desc>Created with Sketch.</desc>
    <defs>
        <path d="M6.01522386,12.2105769 C5.98060326,12.1067308 5.87674148,12.0028846 5.77287971,11.9682692 L5.01122666,11.7605769 C4.87274429,11.7259615 4.69964133,11.7951923 4.63040014,11.9336538 L3.31481761,14.1836538 C2.96861168,14.8067308 3.17633524,15.0144231 3.79950591,14.6682692 L6.08446504,13.3528846 C6.22294741,13.2836538 6.2921886,13.1105769 6.25756801,12.9721154 L6.01522386,12.2105769 L6.01522386,12.2105769 Z M11.9699658,5.77211538 C12.0045864,5.87596154 12.1084482,5.97980769 12.21231,6.01442308 L12.973963,6.22211538 C13.1124454,6.25673077 13.2855484,6.1875 13.3547896,6.04903846 L14.6703721,3.76442308 C15.016578,3.14134615 14.8088545,2.93365385 14.1856838,3.27980769 L11.9007247,4.59519231 C11.7622423,4.66442308 11.6930011,4.8375 11.7276217,4.97596154 L11.9699658,5.77211538 L11.9699658,5.77211538 Z M4.63040014,6.08365385 C4.69964133,6.22211538 4.87274429,6.29134615 5.01122666,6.25673077 L5.77287971,6.04903846 C5.87674148,6.01442308 5.98060326,5.91057692 6.01522386,5.80673077 L6.22294741,5.04519231 C6.25756801,4.90673077 6.18832682,4.73365385 6.04984445,4.66442308 L3.79950591,3.31442308 C3.17633524,2.96826923 2.96861168,3.17596154 3.31481761,3.79903846 L4.63040014,6.08365385 Z M13.3547896,11.8990385 C13.2855484,11.7605769 13.1124454,11.6913462 12.973963,11.7259615 L12.21231,11.9336538 C12.1084482,11.9682692 12.0045864,12.0721154 11.9699658,12.1759615 L11.7622423,12.9721154 C11.7276217,13.1105769 11.7968629,13.2836538 11.9353452,13.3528846 L14.2203044,14.6682692 C14.8434751,15.0144231 15.0511986,14.8067308 14.7049927,14.1836538 L13.3547896,11.8990385 L13.3547896,11.8990385 Z M16.8514694,8.71442308 L11.1736922,7.19134615 C10.9659686,7.15673077 10.8274863,6.98365385 10.7928657,6.81057692 L9.26955959,1.13365385 C9.09645663,0.545192308 8.85411248,0.545192308 8.68100951,1.13365385 L7.15770342,6.81057692 C7.12308283,7.01826923 6.94997987,7.15673077 6.7768769,7.19134615 L1.13372025,8.71442308 C0.545170172,8.8875 0.545170172,9.12980769 1.13372025,9.30288462 L6.81149749,10.8259615 C7.01922105,10.8605769 7.15770342,11.0336538 7.19232402,11.2067308 L8.71563011,16.8836538 C8.88873307,17.4721154 9.13107722,17.4721154 9.30418019,16.8836538 L10.8274863,11.2067308 C10.8621069,10.9990385 11.0352098,10.8605769 11.2083128,10.8259615 L16.88609,9.30288462 C17.4400195,9.12980769 17.4400195,8.85288462 16.8514694,8.71442308 Z M8.99259485,10.3759615 C8.2309418,10.3759615 7.60777113,9.75288462 7.60777113,8.99134615 C7.60777113,8.22980769 8.2309418,7.60673077 8.99259485,7.60673077 C9.75424789,7.60673077 10.3774186,8.22980769 10.3774186,8.99134615 C10.3774186,9.75288462 9.75424789,10.3759615 8.99259485,10.3759615 Z" id="path-1"></path>
    </defs>
    <g id="-" stroke="none" stroke-width="1" fill="none" fill-rule="evenodd">
        <g id="企业新闻展台" transform="translate(-402.000000, -92.000000)">
            <g id="icons/utility/topic-copy" transform="translate(402.000000, 92.000000)">
                <mask id="mask-2" fill="white">
                    <use xlink:href="#path-1"></use>
                </mask>
                <use id="Mask" fill="#FF5500" xlink:href="#path-1"></use>
            </g>
        </g>
    </g>
</svg>