<?xml version="1.0" encoding="UTF-8"?>
<svg xmlns:xlink="http://www.w3.org/1999/xlink" width="14px" height="14px" viewBox="0 0 14 14" version="1.1" xmlns="http://www.w3.org/2000/svg">
    <!-- Generator: Sketch 43 (38999) - http://www.bohemiancoding.com/sketch -->
    <title>Mask</title>
    <desc>Created with Sketch.</desc>
    <defs>
        <path d="M5.38461538,10.0961538 C5.38461538,9.88076923 5.19615385,9.69230769 4.98076923,9.69230769 L0.942307692,9.69230769 C0.726923077,9.69230769 0.538461538,9.88076923 0.538461538,10.0961538 L0.538461538,13.0576923 C0.538461538,13.2730769 0.726923077,13.4615385 0.942307692,13.4615385 L4.98076923,13.4615385 C5.19615385,13.4615385 5.38461538,13.2730769 5.38461538,13.0576923 L5.38461538,10.0961538 Z M2.18076923,5.92307692 L0.861538462,5.92307692 C0.592307692,5.92307692 0.457692308,6.16538462 0.619230769,6.3 L2.77307692,8.53461538 C2.88076923,8.61538462 3.04230769,8.61538462 3.15,8.53461538 L5.30384615,6.3 C5.46538462,6.13846154 5.33076923,5.92307692 5.06153846,5.92307692 L3.79615385,5.92307692 C3.79615385,4.57692308 5.11538462,3.23076923 6.46153846,3.23076923 L6.46153846,1.61538462 C4.03846154,1.61538462 2.18076923,3.5 2.18076923,5.92307692 Z M11.2538462,5.46538462 C11.1461538,5.38461538 10.9846154,5.38461538 10.8769231,5.46538462 L8.72307692,7.7 C8.56153846,7.86153846 8.69615385,8.07692308 8.96538462,8.07692308 L10.2576923,8.07692308 C10.2576923,9.69230769 9.15384615,10.7692308 7.53846154,10.7692308 L7.53846154,12.3846154 C9.96153846,12.3846154 11.8730769,10.5 11.8730769,8.07692308 L13.1923077,8.07692308 C13.4615385,8.07692308 13.5961538,7.83461538 13.4346154,7.7 L11.2538462,5.46538462 L11.2538462,5.46538462 Z M13.4615385,0.942307692 C13.4615385,0.726923077 13.2730769,0.538461538 13.0576923,0.538461538 L9.01923077,0.538461538 C8.80384615,0.538461538 8.61538462,0.726923077 8.61538462,0.942307692 L8.61538462,3.90384615 C8.61538462,4.11923077 8.80384615,4.30769231 9.01923077,4.30769231 L13.0576923,4.30769231 C13.2730769,4.30769231 13.4615385,4.11923077 13.4615385,3.90384615 L13.4615385,0.942307692 Z" id="path-1"></path>
    </defs>
    <g id="-" stroke="none" stroke-width="1" fill="none" fill-rule="evenodd">
        <g id="企业新闻展台" transform="translate(-316.000000, -95.000000)">
            <g id="icons/utility/change_record_type-copy" transform="translate(316.000000, 95.000000)">
                <mask id="mask-2" fill="white">
                    <use xlink:href="#path-1"></use>
                </mask>
                <use id="Mask" fill="#54698D" xlink:href="#path-1"></use>
            </g>
        </g>
    </g>
</svg>