<?xml version="1.0" encoding="UTF-8"?>
<svg xmlns:xlink="http://www.w3.org/1999/xlink" width="12px" height="14px" viewBox="0 0 12 14" version="1.1" xmlns="http://www.w3.org/2000/svg">
    <!-- Generator: Sketch 43 (38999) - http://www.bohemiancoding.com/sketch -->
    <title>Shape</title>
    <desc>Created with Sketch.</desc>
    <defs></defs>
    <g id="-预见" stroke="none" stroke-width="1" fill="none" fill-rule="evenodd">
        <g id="添加企业-上传文件3" transform="translate(-603.000000, -509.000000)" stroke="#666FBE" fill="#666FBE">
            <g id="弹框" transform="translate(211.000000, 152.000000)">
                <g id="Group-4" transform="translate(330.000000, 347.000000)">
                    <g id="Group-4-Copy" transform="translate(55.000000, 0.000000)">
                        <path d="M12.7377232,23.2554548 C12.8125,23.3514799 12.9118304,23.400209 13.0111607,23.400209 C13.1104911,23.400209 13.2087054,23.3514799 13.2845982,23.2554548 L15.0234375,21.0210809 C15.1741071,20.8275976 15.1741071,20.5137247 15.0234375,20.3202414 C14.9508929,20.2270828 14.8537946,20.1754872 14.7511161,20.1754872 C14.6484375,20.1754872 14.5513393,20.2270828 14.4787946,20.3202414 L13.3973214,21.7090216 L13.3973214,13.4279361 C13.3973214,13.1541931 13.2243304,12.9320456 13.0111607,12.9320456 C12.7979911,12.9320456 12.625,13.1541931 12.625,13.4279361 L12.625,21.7090216 L11.5435268,20.3202414 C11.3928571,20.1267581 11.1484375,20.1267581 10.9988839,20.3202414 C10.8482143,20.5137247 10.8482143,20.8275976 10.9977679,21.0210809 L12.7377232,23.2554548 L12.7377232,23.2554548 Z M17.6138393,15.1391885 C17.4006696,15.1391885 17.2276786,14.917041 17.2276786,14.6432979 L17.2276786,11.8428062 C17.2276786,11.6808536 17.125,11.5475651 16.9977679,11.5475651 L9.00111607,11.5475651 C8.875,11.5475651 8.77120536,11.6794203 8.77120536,11.8428062 L8.77120536,14.6447311 C8.77120536,14.9184742 8.59821429,15.1406217 8.38504464,15.1406217 C8.171875,15.1406217 8,14.917041 8,14.6447311 L8,11.4501068 C8,10.9585159 8.31138393,10.5600836 8.69308036,10.5600836 L17.3069196,10.5600836 C17.6897321,10.5600836 18,10.9599491 18,11.4501068 L18,14.6447311 C18,14.917041 17.8270089,15.1391885 17.6138393,15.1391885 L17.6138393,15.1391885 Z" id="Shape" transform="translate(13.000000, 16.980146) scale(1, -1) rotate(-180.000000) translate(-13.000000, -16.980146) "></path>
                    </g>
                </g>
            </g>
        </g>
    </g>
</svg>