<?xml version="1.0" encoding="UTF-8"?>
<svg xmlns:xlink="http://www.w3.org/1999/xlink" width="69px" height="57px" viewBox="0 0 69 57" version="1.1" xmlns="http://www.w3.org/2000/svg">
    <!-- Generator: Sketch 43 (38999) - http://www.bohemiancoding.com/sketch -->
    <title>Shape Copy 11</title>
    <desc>Created with Sketch.</desc>
    <defs></defs>
    <g id="Symbols" stroke="none" stroke-width="1" fill="none" fill-rule="evenodd">
        <g id="上传-Upload-拖拽上传" transform="translate(-219.000000, -56.000000)" fill="#6984C7">
            <g transform="translate(2.000000, 2.000000)" id="Shape-Copy-11">
                <path d="M251.347368,77.5229671 L251.362625,77.5076293 L263.235238,89.4431079 L259.765617,92.9311006 L253.800752,86.9346512 L253.800752,108.028548 C253.800752,109.390911 252.702633,110.495385 251.347368,110.495385 C249.992411,110.495385 248.893985,109.391374 248.893985,108.028625 L248.893985,86.9346512 L242.92912,92.9310235 L239.459499,89.4430308 L251.332111,77.5076293 L251.347368,77.5229671 Z M251.960714,54 C262.172693,54 270.68141,61.325748 272.661137,71.033397 C279.859441,71.033397 285.694737,76.899591 285.694737,84.1360101 C285.694737,90.982742 280.47064,96.6019132 273.811161,97.0074006 L266.533921,97.0074006 C265.513384,97.0074006 264.687641,96.1850491 264.687641,95.1706271 L264.687641,93.9114256 C264.687641,92.9002833 265.510379,92.0746521 266.525279,92.0746521 L272.96781,92.0746521 C277.313979,91.9067845 280.78797,88.5448852 280.78797,84.1360101 C280.78797,79.7210461 277.304242,76.12461 272.949563,75.9718489 C272.94711,76.0341249 268.957594,76.0664003 268.957594,76.0664003 C268.452253,76.0716236 268.004013,75.6612665 267.9679,75.1502666 C267.9679,75.1502666 267.742947,71.9989054 267.759737,71.9920458 C266.310784,64.5492221 259.788694,58.9327485 251.960714,58.9327485 C247.142806,58.9327485 242.819561,61.0605357 239.885391,64.4821675 C239.885391,64.4821675 239.118709,65.2143724 238.428694,66.3704853 C237.955651,67.1630392 237.583077,67.9111452 237.583077,67.9111452 C237.352875,68.3530733 236.75843,68.6786691 236.258448,68.62605 C236.258448,68.62605 233.445336,68.2972631 232.040467,68.3981532 C226.302003,69.2821171 221.906767,74.266197 221.906767,80.2823003 C221.906767,86.9227047 227.261583,92.0746521 233.905345,92.0775809 C235.206865,92.1380071 236.627068,93.2176624 236.627068,94.5410263 C236.627068,95.9031586 235.298637,97.0074006 233.867011,97.0074006 C224.551668,97.0074006 217,89.6470462 217,80.2823003 C217,70.9175545 224.551668,63.3259775 233.867011,63.3259775 C234.086512,63.3259775 234.30471,63.3312957 234.522218,63.3396967 C238.294832,57.7060356 244.697166,54 251.960714,54 Z"></path>
            </g>
        </g>
    </g>
</svg>