<?xml version="1.0" encoding="UTF-8"?>
<svg xmlns:xlink="http://www.w3.org/1999/xlink" width="13px" height="12px" viewBox="0 0 13 12" version="1.1"
     xmlns="http://www.w3.org/2000/svg">
    <!-- Generator: Sketch 43 (38999) - http://www.bohemiancoding.com/sketch -->
    <title>Shape</title>
    <desc>Created with Sketch.</desc>
    <defs></defs>
    <g id="Page-1" stroke="none" stroke-width="1" fill="none" fill-rule="evenodd">
        <g id="2" transform="translate(-1284.000000, -101.000000)" fill="#DFE2F9">
            <g id="Input--Icon-to-left" transform="translate(227.000000, 90.000000)">
                <path d="M1063.33463,11 C1059.88062,11 1057.04947,13.7027027 1057.04947,17 C1057.04947,20.2972973 1059.88062,23 1063.33463,23 C1066.78863,23 1069.61979,20.2972973 1069.61979,17 C1069.61979,13.7027027 1066.78863,11 1063.33463,11 L1063.33463,11 Z M1064.63696,17.2162162 L1066.67539,19.1621622 C1066.73201,19.2702703 1066.73201,19.3783784 1066.67539,19.4864865 L1065.93929,20.1891892 C1065.82604,20.2972973 1065.65617,20.2972973 1065.54293,20.1891892 L1063.5045,18.2432432 C1063.39125,18.1351351 1063.278,18.1351351 1063.16476,18.2432432 L1061.12633,20.1891892 C1061.01308,20.2972973 1060.84321,20.2972973 1060.72997,20.1891892 L1059.99387,19.4864865 C1059.93724,19.3783784 1059.93724,19.2702703 1059.99387,19.1621622 L1062.0323,17.2162162 C1062.14554,17.1081081 1062.14554,16.9459459 1062.0323,16.8378378 L1059.99387,14.8918919 C1059.88062,14.7837838 1059.88062,14.6216216 1059.99387,14.5135135 L1060.72997,13.8108108 C1060.84321,13.7567568 1060.95646,13.7567568 1061.0697,13.8108108 L1063.16476,15.8108108 C1063.278,15.9189189 1063.39125,15.9189189 1063.5045,15.8108108 L1065.54293,13.8648649 C1065.65617,13.7567568 1065.82604,13.7567568 1065.93929,13.8648649 L1066.67539,14.5675676 C1066.73201,14.6756757 1066.73201,14.7837838 1066.67539,14.8918919 L1064.63696,16.8378378 C1064.52371,16.9459459 1064.52371,17.1081081 1064.63696,17.2162162 L1064.63696,17.2162162 Z"
                      id="Shape"></path>
            </g>
        </g>
    </g>
</svg>