<?xml version="1.0" encoding="UTF-8"?>
<svg width="20px" height="20px" viewBox="0 0 20 20" version="1.1" xmlns="http://www.w3.org/2000/svg" xmlns:xlink="http://www.w3.org/1999/xlink">
    <!-- Generator: Sketch 43 (38999) - http://www.bohemiancoding.com/sketch -->
    <title>关闭 copy 5</title>
    <desc>Created with Sketch.</desc>
    <defs></defs>
    <g id="-预见" stroke="none" stroke-width="1" fill="none" fill-rule="evenodd">
        <g id="2.0关系图谱-5" transform="translate(-1338.000000, -78.000000)" fill-rule="nonzero" fill="#BFBFBF">
            <g id="关闭-copy-5" transform="translate(1338.000000, 78.000000)">
                <path d="M17.0632727,2.9358961 C13.1684156,-0.958961039 6.83075325,-0.958961039 2.9358961,2.9358961 C-0.959792208,6.83158442 -0.959792208,13.1692468 2.93506494,17.0641039 C6.83075325,20.9597922 13.1684156,20.9597922 17.0632727,17.0641039 C20.958961,13.1692468 20.958961,6.83158442 17.0632727,2.9358961 Z M14.1874286,13.3063896 C14.430961,13.5499221 14.430961,13.9447273 14.1874286,14.1882597 C13.9438961,14.4317922 13.5490909,14.4317922 13.3055584,14.1882597 L10,10.8818701 L6.69444156,14.1874286 C6.45090909,14.430961 6.0561039,14.430961 5.81257143,14.1874286 C5.56903896,13.9438961 5.56903896,13.5490909 5.81257143,13.3055584 L9.11812987,10 L5.81257143,6.69444156 C5.56903896,6.45090909 5.56903896,6.0561039 5.81257143,5.81257143 C6.0561039,5.56903896 6.45090909,5.56903896 6.69444156,5.81257143 L10,9.11896104 L13.3055584,5.81257143 C13.5490909,5.56903896 13.9438961,5.56903896 14.1874286,5.81257143 C14.430961,6.0561039 14.430961,6.45090909 14.1874286,6.69444156 L10.8818701,10 L14.1874286,13.3063896 Z" id="Shape"></path>
            </g>
        </g>
    </g>
</svg>