<?xml version="1.0" encoding="UTF-8"?>
<svg xmlns:xlink="http://www.w3.org/1999/xlink" width="12px" height="14px" viewBox="0 0 12 14" version="1.1" xmlns="http://www.w3.org/2000/svg">
    <!-- Generator: Sketch 43 (38999) - http://www.bohemiancoding.com/sketch -->
    <title>Shape</title>
    <desc>Created with Sketch.</desc>
    <defs></defs>
    <g id="-预见" stroke="none" stroke-width="1" fill="none" fill-rule="evenodd">
        <g id="添加企业6" transform="translate(-244.000000, -674.000000)" stroke="#666FBE" fill="#666FBE">
            <g id="Group-4" transform="translate(237.000000, 666.000000)">
                <path d="M12.7377232,21.2554548 C12.8125,21.3514799 12.9118304,21.400209 13.0111607,21.400209 C13.1104911,21.400209 13.2087054,21.3514799 13.2845982,21.2554548 L15.0234375,19.0210809 C15.1741071,18.8275976 15.1741071,18.5137247 15.0234375,18.3202414 C14.9508929,18.2270828 14.8537946,18.1754872 14.7511161,18.1754872 C14.6484375,18.1754872 14.5513393,18.2270828 14.4787946,18.3202414 L13.3973214,19.7090216 L13.3973214,11.4279361 C13.3973214,11.1541931 13.2243304,10.9320456 13.0111607,10.9320456 C12.7979911,10.9320456 12.625,11.1541931 12.625,11.4279361 L12.625,19.7090216 L11.5435268,18.3202414 C11.3928571,18.1267581 11.1484375,18.1267581 10.9988839,18.3202414 C10.8482143,18.5137247 10.8482143,18.8275976 10.9977679,19.0210809 L12.7377232,21.2554548 L12.7377232,21.2554548 Z M17.6138393,13.1391885 C17.4006696,13.1391885 17.2276786,12.917041 17.2276786,12.6432979 L17.2276786,9.84280625 C17.2276786,9.68085355 17.125,9.54756505 16.9977679,9.54756505 L9.00111607,9.54756505 C8.875,9.54756505 8.77120536,9.67942034 8.77120536,9.84280625 L8.77120536,12.6447311 C8.77120536,12.9184742 8.59821429,13.1406217 8.38504464,13.1406217 C8.171875,13.1406217 8,12.917041 8,12.6447311 L8,9.4501068 C8,8.95851588 8.31138393,8.56008359 8.69308036,8.56008359 L17.3069196,8.56008359 C17.6897321,8.56008359 18,8.95994909 18,9.4501068 L18,12.6447311 C18,12.917041 17.8270089,13.1391885 17.6138393,13.1391885 L17.6138393,13.1391885 Z" id="Shape" transform="translate(13.000000, 14.980146) scale(1, -1) translate(-13.000000, -14.980146) "></path>
            </g>
        </g>
    </g>
</svg>