<?xml version="1.0" encoding="UTF-8"?>
<svg width="26px" height="25px" viewBox="0 0 26 25" version="1.1" xmlns="http://www.w3.org/2000/svg" xmlns:xlink="http://www.w3.org/1999/xlink">
    <!-- Generator: Sketch 43 (38999) - http://www.bohemiancoding.com/sketch -->
    <title>矩形 copy</title>
    <desc>Created with Sketch.</desc>
    <defs></defs>
    <g id="-预见" stroke="none" stroke-width="1" fill="none" fill-rule="evenodd">
        <g id="注册4" transform="translate(-687.000000, -423.000000)" fill-rule="nonzero" fill="#F16C00">
            <g id="矩形-copy" transform="translate(687.000000, 423.000000)">
                <g id="人">
                    <path d="M12.9270833,1.5625 C19.1751736,1.5625 24.2382812,6.45833333 24.2382812,12.5 C24.2382812,18.5416667 19.1751736,23.4375 12.9270833,23.4375 C6.67899305,23.4375 1.61588542,18.5416667 1.61588542,12.5 C1.61588542,6.45833333 6.67899305,1.5625 12.9270833,1.5625 L12.9270833,1.5625 Z M12.9270833,0 C5.8171875,0 0,5.625 0,12.5 C0,19.375 5.8171875,25 12.9270833,25 C20.0369792,25 25.8541667,19.375 25.8541667,12.5 C25.8541667,5.625 20.0369792,0 12.9270833,0 Z" id="Shape"></path>
                    <path d="M12.9270833,8.48958333 C14.9201745,8.48958333 16.5358941,10.051923 16.5358941,11.9791667 C16.5358941,13.9064103 14.9201745,15.46875 12.9270833,15.46875 C10.9339922,15.46875 9.31827257,13.9064103 9.31827257,11.9791667 C9.31827257,10.051923 10.9339922,8.48958333 12.9270833,8.48958333 L12.9270833,8.48958333 Z M12.9270833,6.92708333 C10.0723524,6.92708333 7.70238716,9.16666665 7.70238716,11.9791667 C7.70238716,14.7916667 10.0184896,17.03125 12.9270833,17.03125 C15.8356771,17.03125 18.1517795,14.7916667 18.1517795,11.9791667 C18.1517795,9.16666667 15.7818142,6.92708335 12.9270833,6.92708333 L12.9270833,6.92708333 Z" id="Shape"></path>
                    <path d="M21.3835503,21.0416667 C19.9831163,17.9166667 16.6974826,15.6770833 12.9270833,15.6770833 C9.15668404,15.6770833 5.87105034,17.9166667 4.47061633,21.0416667 C5.06310766,21.3020833 5.49401042,21.71875 5.7094618,22.2395833 C6.73285589,19.3229167 9.5875868,17.2395833 12.9270833,17.2395833 C15.9972656,17.2395833 18.690408,19.0104167 19.8753906,21.5625 C20.2524305,21.25 20.791059,21.09375 21.3835503,21.0416667 L21.3835503,21.0416667 Z" id="Shape"></path>
                </g>
            </g>
        </g>
    </g>
</svg>