<?xml version="1.0" encoding="UTF-8"?>
<svg xmlns:xlink="http://www.w3.org/1999/xlink" width="12px" height="12px" viewBox="0 0 12 12" version="1.1"
     xmlns="http://www.w3.org/2000/svg">
    <!-- Generator: Sketch 43 (38999) - http://www.bohemiancoding.com/sketch -->
    <title>Mask</title>
    <desc>Created with Sketch.</desc>
    <defs>
        <path d="M0,2.0085302 C0,0.899249601 0.901950359,0 2.0085302,0 L9.9914698,0 C11.1007504,0 12,0.901950359 12,2.0085302 L12,9.9914698 C12,11.1007504 11.0980496,12 9.9914698,12 L2.0085302,12 C0.899249601,12 0,11.0980496 0,9.9914698 L0,2.0085302 Z M6.25,3 C6.675,3 7,3.325 7,3.75 C7,4.175 6.675,4.5 6.25,4.5 C5.825,4.5 5.5,4.175 5.5,3.75 C5.5,3.325 5.825,3 6.25,3 L6.25,3 Z M7.5,8.25 C7.5,8.375 7.4,8.475 7.25,8.475 L5.25,8.475 C5.125,8.475 5,8.4 5,8.25 L5,7.75 C5,7.625 5.1,7.475 5.25,7.475 C5.375,7.475 5.5,7.4 5.5,7.25 L5.5,6.25 C5.5,6.125 5.4,5.975 5.25,5.975 C5.125,5.975 5,5.9 5,5.75 L5,5.25 C5,5.125 5.1,4.975 5.25,4.975 L6.75,4.975 C6.875,4.975 7,5.1 7,5.25 L7,7.25 C7,7.375 7.1,7.475 7.25,7.475 C7.375,7.475 7.5,7.6 7.5,7.75 L7.5,8.25 Z"
              id="path-1"></path>
    </defs>
    <g id="-预见" stroke="none" stroke-width="1" fill="none" fill-rule="evenodd">
        <g id="太保组合" transform="translate(-1020.000000, -261.000000)">
            <g id="icons/utility/info-copy"
               transform="translate(1026.000000, 267.000000) rotate(-180.000000) translate(-1026.000000, -267.000000) translate(1020.000000, 261.000000)">
                <mask id="mask-2" fill="white">
                    <use xlink:href="#path-1"></use>
                </mask>
                <use id="Mask" fill="#FFAA00" xlink:href="#path-1"></use>
            </g>
        </g>
    </g>
</svg>