<?xml version="1.0" encoding="UTF-8"?>
<svg width="18px" height="18px" viewBox="0 0 18 18" version="1.1" xmlns="http://www.w3.org/2000/svg" xmlns:xlink="http://www.w3.org/1999/xlink">
    <!-- Generator: Sketch 43 (38999) - http://www.bohemiancoding.com/sketch -->
    <title>Mask</title>
    <desc>Created with Sketch.</desc>
    <defs>
        <path d="M15,9.75 C15,9.975 14.85,10.125 14.625,10.125 L10.5,10.125 C10.3125,10.125 10.125,10.3125 10.125,10.5 L10.125,14.625 C10.125,14.8125 9.9375,15 9.75,15 L8.25,15 C8.025,15 7.875,14.85 7.875,14.625 L7.875,10.5 C7.875,10.275 7.725,10.125 7.5,10.125 L3.375,10.125 C3.15,10.125 3,9.975 3,9.75 L3,8.25 C3,8.0625 3.1875,7.875 3.375,7.875 L7.5,7.875 C7.725,7.875 7.875,7.725 7.875,7.5 L7.875,3.375 C7.875,3.1875 8.0625,3 8.25,3 L9.75,3 C9.9375,3 10.125,3.15 10.125,3.375 L10.125,7.5 C10.125,7.725 10.275,7.875 10.5,7.875 L14.625,7.875 C14.8125,7.875 15,8.0625 15,8.25 L15,9.75 Z M0,1.99508929 C0,0.893231902 0.892622799,0 1.99508929,0 L16.0049107,0 C17.1067681,0 18,0.892622799 18,1.99508929 L18,16.0049107 C18,17.1067681 17.1073772,18 16.0049107,18 L1.99508929,18 C0.893231902,18 0,17.1073772 0,16.0049107 L0,1.99508929 Z" id="path-1"></path>
    </defs>
    <g id="脸谱" stroke="none" stroke-width="1" fill="none" fill-rule="evenodd">
        <g id="icon" transform="translate(-16.000000, -90.000000)">
            <g id="Group-3-Copy-3" transform="translate(16.000000, 89.000000)">
                <g id="icons/utility/new-copy-2" transform="translate(0.000000, 1.000000)">
                    <mask id="mask-2" fill="white">
                        <use xlink:href="#path-1"></use>
                    </mask>
                    <use id="Mask" fill="#FFFFFF" xlink:href="#path-1"></use>
                </g>
            </g>
        </g>
    </g>
</svg>