<?xml version="1.0" encoding="UTF-8"?>
<svg width="18px" height="18px" viewBox="0 0 18 18" version="1.1" xmlns="http://www.w3.org/2000/svg" xmlns:xlink="http://www.w3.org/1999/xlink">
    <!-- Generator: Sketch 43 (38999) - http://www.bohemiancoding.com/sketch -->
    <title>Group 2</title>
    <desc>Created with Sketch.</desc>
    <defs>
        <path d="M11.2408907,6.0895749 C11.2408907,5.80536437 10.9922065,5.55668016 10.707996,5.55668016 L7.51062753,5.55668016 C7.226417,5.55668016 6.97773279,5.80536437 6.97773279,6.0895749 L6.97773279,15.6816802 C6.97773279,15.9658907 7.226417,16.2145749 7.51062753,16.2145749 L10.707996,16.2145749 C10.9922065,16.2145749 11.2408907,15.9658907 11.2408907,15.6816802 L11.2408907,6.0895749 Z M4.84615385,6.0895749 C4.84615385,5.80536437 4.59746964,5.55668016 4.31325911,5.55668016 L1.11589069,5.55668016 C0.831680162,5.55668016 0.582995951,5.80536437 0.582995951,6.0895749 L0.582995951,17.1027328 C0.582995951,17.3869433 0.831680162,17.6356275 1.11589069,17.6356275 L4.31325911,17.6356275 C4.59746964,17.6356275 4.84615385,17.3869433 4.84615385,17.1027328 L4.84615385,6.0895749 Z M17.6356275,6.0895749 C17.6356275,5.80536437 17.3869433,5.55668016 17.1027328,5.55668016 L13.9053644,5.55668016 C13.6211538,5.55668016 13.3724696,5.80536437 13.3724696,6.0895749 L13.3724696,14.2606275 C13.3724696,14.5448381 13.6211538,14.7935223 13.9053644,14.7935223 L17.1027328,14.7935223 C17.3869433,14.7935223 17.6356275,14.5448381 17.6356275,14.2606275 L17.6356275,6.0895749 Z M17.6356275,1.11589069 C17.6356275,0.831680162 17.3869433,0.582995951 17.1027328,0.582995951 L1.11589069,0.582995951 C0.831680162,0.582995951 0.582995951,0.831680162 0.582995951,1.11589069 L0.582995951,2.89220648 C0.582995951,3.176417 0.831680162,3.42510121 1.11589069,3.42510121 L17.1027328,3.42510121 C17.3869433,3.42510121 17.6356275,3.176417 17.6356275,2.89220648 L17.6356275,1.11589069 Z" id="path-1"></path>
    </defs>
    <g id="脸谱" stroke="none" stroke-width="1" fill="none" fill-rule="evenodd">
        <g id="风险总览-1" transform="translate(-43.000000, -99.000000)">
            <g id="Group-3" transform="translate(43.000000, 98.000000)">
                <g id="Group-2" transform="translate(0.000000, 1.000000)">
                    <g id="icons/utility/kanban">
                        <mask id="mask-2" fill="white">
                            <use xlink:href="#path-1"></use>
                        </mask>
                        <use id="Mask" fill="#54698D" xlink:href="#path-1"></use>
                    </g>
                </g>
            </g>
        </g>
    </g>
</svg>