<?xml version="1.0" encoding="UTF-8"?>
<svg width="20px" height="13px" viewBox="0 0 20 13" version="1.1" xmlns="http://www.w3.org/2000/svg" xmlns:xlink="http://www.w3.org/1999/xlink">
    <!-- Generator: Sketch 43 (38999) - http://www.bohemiancoding.com/sketch -->
    <title>Fill 10</title>
    <desc>Created with Sketch.</desc>
    <defs></defs>
    <g id="Page-1" stroke="none" stroke-width="1" fill="none" fill-rule="evenodd">
        <g id="首页--4" transform="translate(-1380.000000, -278.000000)" fill="#BEBEBE">
            <g id="fa-eye" transform="translate(1380.000000, 278.000000)">
                <path d="M0.444347826,6.89070652 C1.08869565,7.69967391 1.85043478,8.41326087 2.70869565,9.04701087 C3.58695652,9.69771739 4.54347826,10.205 5.57826087,10.5858152 C5.26608696,11.0295109 5.10956522,11.2831522 5.10956522,11.3629891 C5.10956522,11.473913 5.16782609,11.5530435 5.28521739,11.6166304 C6.16347826,12.0285326 6.65130435,12.234837 6.74869565,12.234837 C6.86608696,12.234837 6.98347826,12.1875 7.04173913,12.0921196 L7.58869565,11.2994022 C8.34956522,10.1732065 9.50086957,8.50793478 11.0234783,6.27179348 C12.546087,4.0363587 13.6782609,2.37108696 14.4391304,1.27668478 C14.4582609,1.2611413 14.4582609,1.22934783 14.4582609,1.19755435 C14.4582609,1.08663043 14.4,1.0075 14.2826087,0.959456522 C14.2634783,0.943913043 14.1852174,0.912119565 14.0686957,0.848532609 C13.9513043,0.801195652 13.833913,0.737608696 13.7365217,0.690271739 C13.6191304,0.642228261 13.5026087,0.579347826 13.3652174,0.531304348 C13.2486957,0.467717391 13.1313043,0.435923913 13.033913,0.388586957 C12.9365217,0.356793478 12.8773913,0.34125 12.8382609,0.34125 C12.7017391,0.34125 12.6043478,0.388586957 12.526087,0.483967391 L11.9408696,1.32402174 C11.2773913,1.22934783 10.6330435,1.18130435 9.98869565,1.18130435 C8.0373913,1.18130435 6.24173913,1.57836957 4.5826087,2.38663043 C2.9426087,3.18005435 1.5573913,4.27375 0.444347826,5.66983696 C0.307826087,5.8436413 0.230434783,6.04994565 0.230434783,6.27179348 C0.230434783,6.49434783 0.307826087,6.70065217 0.444347826,6.89070652 L0.444347826,6.89070652 Z M5.77304348,3.14826087 C5.32434783,3.76646739 5.10956522,4.43271739 5.10956522,5.14630435 C5.10956522,5.78076087 5.28521739,6.36717391 5.63652174,6.93804348 C5.98782609,7.50891304 6.49565217,7.9688587 7.12,8.34967391 L6.26086957,9.58679348 C4.38782609,8.905 2.82608696,7.79434783 1.61565217,6.27179348 C2.72869565,4.87641304 4.11391304,3.84559783 5.77304348,3.14826087 L5.77304348,3.14826087 Z M7.64695652,3.24293478 C8.29130435,2.7201087 9.07130435,2.45021739 9.98869565,2.45021739 C10.126087,2.45021739 10.2426087,2.49755435 10.36,2.5773913 C10.4573913,2.65652174 10.4965217,2.75190217 10.4965217,2.87836957 C10.4965217,2.98929348 10.4573913,3.10021739 10.36,3.18005435 C10.2426087,3.25918478 10.126087,3.30652174 9.98869565,3.30652174 C9.36434783,3.30652174 8.81826087,3.48103261 8.38869565,3.84559783 C7.94,4.19461957 7.72521739,4.63902174 7.72521739,5.14630435 C7.72521739,5.25722826 7.66608696,5.3526087 7.56869565,5.44728261 C7.47130435,5.52711957 7.33478261,5.55820652 7.19826087,5.55820652 C7.04173913,5.55820652 6.92521739,5.52711957 6.82695652,5.44728261 C6.72956522,5.3526087 6.67130435,5.25722826 6.67130435,5.14630435 C6.67130435,4.40092391 7.0026087,3.76646739 7.64695652,3.24293478 L7.64695652,3.24293478 Z M14.5565217,10.5377717 C16.0008696,9.98315217 17.2495652,9.18972826 18.3426087,8.17516304 C18.8504348,7.69967391 19.2408696,7.27152174 19.5330435,6.89070652 C19.6695652,6.68440217 19.7478261,6.47809783 19.7478261,6.27179348 C19.7478261,6.06619565 19.6695652,5.8598913 19.5330435,5.66983696 C19.1234783,5.09826087 18.5965217,4.55918478 17.9521739,4.0363587 C17.3278261,3.51282609 16.6643478,3.05288043 15.9617391,2.68831522 L15.2782609,3.67108696 C16.4886957,4.35358696 17.5226087,5.22543478 18.3626087,6.27179348 C17.4843478,7.38244565 16.3713043,8.28608696 15.0634783,8.99967391 C13.7556522,9.69771739 12.3313043,10.0940761 10.7895652,10.205 L9.98869565,11.3785326 C11.6086957,11.3785326 13.1313043,11.0930978 14.5565217,10.5377717 L14.5565217,10.5377717 Z M14.0095652,7.38244565 C14.5756522,6.71619565 14.8686957,5.95527174 14.8686957,5.14630435 C14.8686957,4.90820652 14.8486957,4.67081522 14.7904348,4.40092391 L11.726087,8.84141304 C12.6826087,8.53972826 13.4434783,8.06423913 14.0095652,7.38244565 L14.0095652,7.38244565 Z" id="Fill-10"></path>
            </g>
        </g>
    </g>
</svg>