<?xml version="1.0" encoding="UTF-8"?>
<svg width="20px" height="13px" viewBox="0 0 20 13" version="1.1" xmlns="http://www.w3.org/2000/svg" xmlns:xlink="http://www.w3.org/1999/xlink">
    <!-- Generator: Sketch 43 (38999) - http://www.bohemiancoding.com/sketch -->
    <title>fa-eye</title>
    <desc>Created with Sketch.</desc>
    <defs></defs>
    <g id="Page-1" stroke="none" stroke-width="1" fill="none" fill-rule="evenodd">
        <g id="首页-3" transform="translate(-1381.000000, -278.000000)" fill="#6770E0">
            <g id="fa-eye" transform="translate(1381.000000, 278.000000)">
                <path d="M0.444347826,7.04434783 C1.46,8.70347826 2.82608696,10.0504348 4.54347826,11.046087 C6.26086957,12.0608696 8.07652174,12.5678261 9.98869565,12.5678261 C11.9017391,12.5678261 13.7173913,12.0608696 15.4347826,11.0652174 C17.1521739,10.0504348 18.5182609,8.7226087 19.5330435,7.04434783 C19.6695652,6.79043478 19.7478261,6.53652174 19.7478261,6.3026087 C19.7478261,6.04869565 19.6695652,5.79565217 19.5330435,5.54173913 C18.5182609,3.8826087 17.1521739,2.53565217 15.4347826,1.54 C13.7173913,0.525217391 11.9017391,0.0182608696 9.98869565,0.0182608696 C8.07652174,0.0182608696 6.26086957,0.525217391 4.54347826,1.54 C2.82608696,2.53565217 1.46,3.8826087 0.444347826,5.54173913 C0.307826087,5.79565217 0.230434783,6.04869565 0.230434783,6.3026087 C0.230434783,6.53652174 0.307826087,6.79043478 0.444347826,7.04434783 L0.444347826,7.04434783 Z M5.10956522,4.8973913 C5.10956522,6.24434783 5.57826087,7.39565217 6.53391304,8.35217391 C7.49043478,9.30869565 8.6426087,9.7773913 9.98869565,9.7773913 C11.3356522,9.7773913 12.4869565,9.30869565 13.4243478,8.35217391 C14.3808696,7.39565217 14.8686957,6.24434783 14.8686957,4.8973913 C14.8686957,4.01913043 14.633913,3.19913043 14.2052174,2.43826087 C15.8643478,3.2973913 17.2495652,4.58521739 18.3426087,6.3026087 C17.386087,7.78608696 16.1765217,8.97652174 14.7121739,9.85478261 C13.2678261,10.7330435 11.6869565,11.1826087 9.98869565,11.1826087 C8.29130435,11.1826087 6.71043478,10.7330435 5.24608696,9.85478261 C3.80173913,8.97652174 2.59130435,7.78608696 1.61565217,6.3026087 C2.72869565,4.58521739 4.11391304,3.2973913 5.77304348,2.43826087 C5.32434783,3.19913043 5.10956522,4.01913043 5.10956522,4.8973913 Z M7.64695652,2.55565217 C8.29130435,1.91130435 9.07130435,1.57913043 9.98869565,1.57913043 C10.126087,1.57913043 10.2426087,1.63826087 10.36,1.73565217 C10.4573913,1.83304348 10.4965217,1.95043478 10.4965217,2.10608696 C10.4965217,2.2426087 10.4573913,2.38 10.36,2.4773913 C10.2426087,2.57478261 10.126087,2.63304348 9.98869565,2.63304348 C9.36434783,2.63304348 8.81826087,2.84782609 8.38869565,3.2973913 C7.94,3.74608696 7.72521739,4.27304348 7.72521739,4.8973913 C7.72521739,5.05391304 7.66608696,5.17043478 7.56869565,5.26869565 C7.47130435,5.36608696 7.33478261,5.42434783 7.19826087,5.42434783 C7.04173913,5.42434783 6.92521739,5.36608696 6.82695652,5.26869565 C6.72956522,5.17043478 6.67130435,5.05391304 6.67130435,4.8973913 C6.67130435,3.98 7.0026087,3.19913043 7.64695652,2.55565217 L7.64695652,2.55565217 Z" id="Fill-1"></path>
            </g>
        </g>
    </g>
</svg>
