<?xml version="1.0" encoding="UTF-8"?>
<svg width="18px" height="18px" viewBox="0 0 18 18" version="1.1" xmlns="http://www.w3.org/2000/svg" xmlns:xlink="http://www.w3.org/1999/xlink">
    <!-- Generator: Sketch 43 (38999) - http://www.bohemiancoding.com/sketch -->
    <title>icons/utility/socialshare</title>
    <desc>Created with Sketch.</desc>
    <defs>
        <path d="M14.1923077,11.1115385 C13.2923077,11.1115385 12.4961538,11.4923077 11.9423077,12.0807692 L6.88846154,9.55384615 C6.92307692,9.38076923 6.92307692,9.20769231 6.92307692,9 C6.92307692,8.82692308 6.88846154,8.61923077 6.88846154,8.44615385 L11.9423077,5.91923077 C12.4961538,6.54230769 13.3269231,6.92307692 14.2269231,6.92307692 C15.9576923,6.92307692 17.3423077,5.53846154 17.3423077,3.80769231 C17.3423077,2.07692308 15.9576923,0.692307692 14.2269231,0.692307692 C12.4961538,0.692307692 11.1115385,2.07692308 11.1115385,3.80769231 L11.1115385,4.01538462 L5.88461538,6.64615385 C5.29615385,6.19615385 4.60384615,5.91923077 3.80769231,5.91923077 C2.07692308,5.91923077 0.692307692,7.30384615 0.692307692,9.03461538 C0.692307692,10.7653846 2.07692308,12.15 3.80769231,12.15 C4.60384615,12.15 5.29615385,11.8730769 5.85,11.3884615 L11.0769231,13.9846154 L11.0769231,14.2269231 C11.0769231,15.9576923 12.4615385,17.3423077 14.1923077,17.3423077 C15.9230769,17.3423077 17.3076923,15.9576923 17.3076923,14.2269231 C17.3076923,12.4961538 15.9230769,11.1115385 14.1923077,11.1115385 L14.1923077,11.1115385 Z" id="path-1"></path>
    </defs>
    <g id="脸谱" stroke="none" stroke-width="1" fill="none" fill-rule="evenodd">
        <g id="icon" transform="translate(-53.000000, -154.000000)">
            <g id="Group-3-Copy-5" transform="translate(15.000000, 153.000000)">
                <g id="icons/utility/socialshare" transform="translate(38.000000, 1.000000)">
                    <mask id="mask-2" fill="white">
                        <use xlink:href="#path-1"></use>
                    </mask>
                    <use id="Mask" fill="#FFFFFF" xlink:href="#path-1"></use>
                </g>
            </g>
        </g>
    </g>
</svg>